<mxfile host="app.diagrams.net" modified="2024-03-07T07:04:12.011Z" agent="Mozilla/5.0 (Macintosh; Intel Mac OS X 10_15_7) AppleWebKit/537.36 (KHTML, like Gecko) Chrome/122.0.0.0 Safari/537.36" etag="2g4Wc4fdQnoc5bu2mSGW" version="24.0.1" type="github">
  <diagram name="第 1 页" id="xg0n5kIAv0Q_2YQMW4IB">
    <mxGraphModel dx="1961" dy="723" grid="1" gridSize="10" guides="1" tooltips="1" connect="1" arrows="1" fold="1" page="1" pageScale="1" pageWidth="827" pageHeight="1169" background="none" math="0" shadow="0">
      <root>
        <mxCell id="0" />
        <mxCell id="1" parent="0" />
        <mxCell id="nZQhXkqVhuCxKCc_rjwz-1" value="" style="group;movable=1;resizable=1;rotatable=1;deletable=1;editable=1;locked=0;connectable=1;rounded=1;labelBackgroundColor=none;fontColor=#393C56;sketch=1;curveFitting=1;jiggle=2;" vertex="1" connectable="0" parent="1">
          <mxGeometry x="-40" y="540" width="710" height="370" as="geometry" />
        </mxCell>
        <mxCell id="QTP2n4AatyaKwR-8FhE4-6" value="&lt;font style=&quot;font-size: 18px;&quot;&gt;主键索引树&lt;/font&gt;" style="text;html=1;align=center;verticalAlign=middle;resizable=0;points=[];autosize=1;strokeColor=none;fillColor=none;sketch=1;curveFitting=1;jiggle=2;rounded=1;movable=0;rotatable=0;deletable=0;editable=0;locked=1;connectable=0;labelBackgroundColor=none;fontColor=#393C56;" parent="nZQhXkqVhuCxKCc_rjwz-1" vertex="1">
          <mxGeometry x="180" width="110" height="40" as="geometry" />
        </mxCell>
        <mxCell id="QTP2n4AatyaKwR-8FhE4-15" value="" style="shape=table;startSize=0;container=1;collapsible=0;childLayout=tableLayout;sketch=1;curveFitting=1;jiggle=2;rounded=1;movable=0;resizable=0;rotatable=0;deletable=0;editable=0;locked=1;connectable=0;labelBackgroundColor=none;fillColor=#F2CC8F;strokeColor=#E07A5F;fontColor=#393C56;" parent="nZQhXkqVhuCxKCc_rjwz-1" vertex="1">
          <mxGeometry x="170" y="50" width="180" height="40" as="geometry" />
        </mxCell>
        <mxCell id="QTP2n4AatyaKwR-8FhE4-16" value="" style="shape=tableRow;horizontal=0;startSize=0;swimlaneHead=0;swimlaneBody=0;strokeColor=#E07A5F;top=0;left=0;bottom=0;right=0;collapsible=0;dropTarget=0;fillColor=none;points=[[0,0.5],[1,0.5]];portConstraint=eastwest;sketch=1;curveFitting=1;jiggle=2;rounded=1;movable=0;resizable=0;rotatable=0;deletable=0;editable=0;locked=1;connectable=0;labelBackgroundColor=none;fontColor=#393C56;" parent="QTP2n4AatyaKwR-8FhE4-15" vertex="1">
          <mxGeometry width="180" height="40" as="geometry" />
        </mxCell>
        <mxCell id="QTP2n4AatyaKwR-8FhE4-17" value="" style="shape=partialRectangle;html=1;whiteSpace=wrap;connectable=0;strokeColor=#E07A5F;overflow=hidden;fillColor=none;top=0;left=0;bottom=0;right=0;pointerEvents=1;sketch=1;curveFitting=1;jiggle=2;rounded=1;movable=0;resizable=0;rotatable=0;deletable=0;editable=0;locked=1;labelBackgroundColor=none;fontColor=#393C56;" parent="QTP2n4AatyaKwR-8FhE4-16" vertex="1">
          <mxGeometry width="60" height="40" as="geometry">
            <mxRectangle width="60" height="40" as="alternateBounds" />
          </mxGeometry>
        </mxCell>
        <mxCell id="QTP2n4AatyaKwR-8FhE4-18" value="" style="shape=partialRectangle;html=1;whiteSpace=wrap;connectable=0;strokeColor=#E07A5F;overflow=hidden;fillColor=none;top=0;left=0;bottom=0;right=0;pointerEvents=1;sketch=1;curveFitting=1;jiggle=2;rounded=1;movable=0;resizable=0;rotatable=0;deletable=0;editable=0;locked=1;labelBackgroundColor=none;fontColor=#393C56;" parent="QTP2n4AatyaKwR-8FhE4-16" vertex="1">
          <mxGeometry x="60" width="60" height="40" as="geometry">
            <mxRectangle width="60" height="40" as="alternateBounds" />
          </mxGeometry>
        </mxCell>
        <mxCell id="QTP2n4AatyaKwR-8FhE4-51" style="shape=partialRectangle;html=1;whiteSpace=wrap;connectable=0;strokeColor=#E07A5F;overflow=hidden;fillColor=none;top=0;left=0;bottom=0;right=0;pointerEvents=1;sketch=1;curveFitting=1;jiggle=2;rounded=1;movable=0;resizable=0;rotatable=0;deletable=0;editable=0;locked=1;labelBackgroundColor=none;fontColor=#393C56;" parent="QTP2n4AatyaKwR-8FhE4-16" vertex="1">
          <mxGeometry x="120" width="60" height="40" as="geometry">
            <mxRectangle width="60" height="40" as="alternateBounds" />
          </mxGeometry>
        </mxCell>
        <mxCell id="QTP2n4AatyaKwR-8FhE4-19" value="" style="shape=table;startSize=0;container=1;collapsible=0;childLayout=tableLayout;sketch=1;curveFitting=1;jiggle=2;rounded=1;movable=0;resizable=0;rotatable=0;deletable=0;editable=0;locked=1;connectable=0;labelBackgroundColor=none;fillColor=#F2CC8F;strokeColor=#E07A5F;fontColor=#393C56;" parent="nZQhXkqVhuCxKCc_rjwz-1" vertex="1">
          <mxGeometry y="170" width="180" height="40" as="geometry" />
        </mxCell>
        <mxCell id="QTP2n4AatyaKwR-8FhE4-20" value="" style="shape=tableRow;horizontal=0;startSize=0;swimlaneHead=0;swimlaneBody=0;strokeColor=#E07A5F;top=0;left=0;bottom=0;right=0;collapsible=0;dropTarget=0;fillColor=none;points=[[0,0.5],[1,0.5]];portConstraint=eastwest;sketch=1;curveFitting=1;jiggle=2;rounded=1;movable=0;resizable=0;rotatable=0;deletable=0;editable=0;locked=1;connectable=0;labelBackgroundColor=none;fontColor=#393C56;" parent="QTP2n4AatyaKwR-8FhE4-19" vertex="1">
          <mxGeometry width="180" height="40" as="geometry" />
        </mxCell>
        <mxCell id="QTP2n4AatyaKwR-8FhE4-21" value="ID..." style="shape=partialRectangle;html=1;whiteSpace=wrap;connectable=0;strokeColor=#E07A5F;overflow=hidden;fillColor=none;top=0;left=0;bottom=0;right=0;pointerEvents=1;sketch=1;curveFitting=1;jiggle=2;rounded=1;movable=0;resizable=0;rotatable=0;deletable=0;editable=0;locked=1;labelBackgroundColor=none;fontColor=#393C56;" parent="QTP2n4AatyaKwR-8FhE4-20" vertex="1">
          <mxGeometry width="60" height="40" as="geometry">
            <mxRectangle width="60" height="40" as="alternateBounds" />
          </mxGeometry>
        </mxCell>
        <mxCell id="QTP2n4AatyaKwR-8FhE4-22" value="" style="shape=partialRectangle;html=1;whiteSpace=wrap;connectable=0;strokeColor=#E07A5F;overflow=hidden;fillColor=none;top=0;left=0;bottom=0;right=0;pointerEvents=1;sketch=1;curveFitting=1;jiggle=2;rounded=1;movable=0;resizable=0;rotatable=0;deletable=0;editable=0;locked=1;labelBackgroundColor=none;fontColor=#393C56;" parent="QTP2n4AatyaKwR-8FhE4-20" vertex="1">
          <mxGeometry x="60" width="60" height="40" as="geometry">
            <mxRectangle width="60" height="40" as="alternateBounds" />
          </mxGeometry>
        </mxCell>
        <mxCell id="QTP2n4AatyaKwR-8FhE4-23" value="" style="shape=partialRectangle;html=1;whiteSpace=wrap;connectable=0;strokeColor=#E07A5F;overflow=hidden;fillColor=none;top=0;left=0;bottom=0;right=0;pointerEvents=1;sketch=1;curveFitting=1;jiggle=2;rounded=1;movable=0;resizable=0;rotatable=0;deletable=0;editable=0;locked=1;labelBackgroundColor=none;fontColor=#393C56;" parent="QTP2n4AatyaKwR-8FhE4-20" vertex="1">
          <mxGeometry x="120" width="60" height="40" as="geometry">
            <mxRectangle width="60" height="40" as="alternateBounds" />
          </mxGeometry>
        </mxCell>
        <mxCell id="QTP2n4AatyaKwR-8FhE4-24" value="" style="shape=table;startSize=0;container=1;collapsible=0;childLayout=tableLayout;fillColor=#F2CC8F;fontColor=#393C56;strokeColor=#E07A5F;sketch=1;curveFitting=1;jiggle=2;rounded=1;movable=0;resizable=0;rotatable=0;deletable=0;editable=0;locked=1;connectable=0;labelBackgroundColor=none;" parent="nZQhXkqVhuCxKCc_rjwz-1" vertex="1">
          <mxGeometry x="270" y="170" width="180" height="40" as="geometry" />
        </mxCell>
        <mxCell id="QTP2n4AatyaKwR-8FhE4-25" value="" style="shape=tableRow;horizontal=0;startSize=0;swimlaneHead=0;swimlaneBody=0;strokeColor=#E07A5F;top=0;left=0;bottom=0;right=0;collapsible=0;dropTarget=0;fillColor=#F2CC8F;points=[[0,0.5],[1,0.5]];portConstraint=eastwest;fontColor=#393C56;sketch=1;curveFitting=1;jiggle=2;rounded=1;movable=0;resizable=0;rotatable=0;deletable=0;editable=0;locked=1;connectable=0;labelBackgroundColor=none;" parent="QTP2n4AatyaKwR-8FhE4-24" vertex="1">
          <mxGeometry width="180" height="40" as="geometry" />
        </mxCell>
        <mxCell id="QTP2n4AatyaKwR-8FhE4-26" value="ID3" style="shape=partialRectangle;html=1;whiteSpace=wrap;connectable=0;strokeColor=#E07A5F;overflow=hidden;fillColor=#F2CC8F;top=0;left=0;bottom=0;right=0;pointerEvents=1;fontColor=#393C56;sketch=1;curveFitting=1;jiggle=2;rounded=1;movable=0;resizable=0;rotatable=0;deletable=0;editable=0;locked=1;labelBackgroundColor=none;" parent="QTP2n4AatyaKwR-8FhE4-25" vertex="1">
          <mxGeometry width="60" height="40" as="geometry">
            <mxRectangle width="60" height="40" as="alternateBounds" />
          </mxGeometry>
        </mxCell>
        <mxCell id="QTP2n4AatyaKwR-8FhE4-27" value="ID4" style="shape=partialRectangle;html=1;whiteSpace=wrap;connectable=0;strokeColor=#E07A5F;overflow=hidden;fillColor=#F2CC8F;top=0;left=0;bottom=0;right=0;pointerEvents=1;fontColor=#393C56;sketch=1;curveFitting=1;jiggle=2;rounded=1;movable=0;resizable=0;rotatable=0;deletable=0;editable=0;locked=1;labelBackgroundColor=none;" parent="QTP2n4AatyaKwR-8FhE4-25" vertex="1">
          <mxGeometry x="60" width="60" height="40" as="geometry">
            <mxRectangle width="60" height="40" as="alternateBounds" />
          </mxGeometry>
        </mxCell>
        <mxCell id="QTP2n4AatyaKwR-8FhE4-28" value="ID5" style="shape=partialRectangle;html=1;whiteSpace=wrap;connectable=0;strokeColor=#E07A5F;overflow=hidden;fillColor=#F2CC8F;top=0;left=0;bottom=0;right=0;pointerEvents=1;fontColor=#393C56;sketch=1;curveFitting=1;jiggle=2;rounded=1;movable=0;resizable=0;rotatable=0;deletable=0;editable=0;locked=1;labelBackgroundColor=none;" parent="QTP2n4AatyaKwR-8FhE4-25" vertex="1">
          <mxGeometry x="120" width="60" height="40" as="geometry">
            <mxRectangle width="60" height="40" as="alternateBounds" />
          </mxGeometry>
        </mxCell>
        <mxCell id="QTP2n4AatyaKwR-8FhE4-30" value="" style="endArrow=classic;html=1;rounded=1;exitX=0.229;exitY=1.106;exitDx=0;exitDy=0;entryX=0.431;entryY=-0.019;entryDx=0;entryDy=0;entryPerimeter=0;exitPerimeter=0;sketch=1;curveFitting=1;jiggle=2;movable=0;resizable=0;rotatable=0;deletable=0;editable=0;locked=1;connectable=0;labelBackgroundColor=none;strokeColor=#E07A5F;fontColor=default;" parent="nZQhXkqVhuCxKCc_rjwz-1" source="QTP2n4AatyaKwR-8FhE4-16" target="QTP2n4AatyaKwR-8FhE4-20" edge="1">
          <mxGeometry width="50" height="50" relative="1" as="geometry">
            <mxPoint y="140" as="sourcePoint" />
            <mxPoint x="50" y="90" as="targetPoint" />
          </mxGeometry>
        </mxCell>
        <mxCell id="QTP2n4AatyaKwR-8FhE4-31" value="" style="endArrow=classic;html=1;rounded=1;exitX=0.521;exitY=1.013;exitDx=0;exitDy=0;entryX=0.458;entryY=-0.144;entryDx=0;entryDy=0;entryPerimeter=0;exitPerimeter=0;sketch=1;curveFitting=1;jiggle=2;movable=0;resizable=0;rotatable=0;deletable=0;editable=0;locked=1;connectable=0;labelBackgroundColor=none;strokeColor=#E07A5F;fontColor=default;" parent="nZQhXkqVhuCxKCc_rjwz-1" source="QTP2n4AatyaKwR-8FhE4-16" target="QTP2n4AatyaKwR-8FhE4-25" edge="1">
          <mxGeometry width="50" height="50" relative="1" as="geometry">
            <mxPoint x="185" y="103" as="sourcePoint" />
            <mxPoint x="88" y="179" as="targetPoint" />
          </mxGeometry>
        </mxCell>
        <mxCell id="QTP2n4AatyaKwR-8FhE4-39" value="" style="endArrow=classic;startArrow=classic;html=1;rounded=1;entryX=0;entryY=0.5;entryDx=0;entryDy=0;exitX=1;exitY=0.5;exitDx=0;exitDy=0;sketch=1;curveFitting=1;jiggle=2;movable=0;resizable=0;rotatable=0;deletable=0;editable=0;locked=1;connectable=0;labelBackgroundColor=none;strokeColor=#E07A5F;fontColor=default;" parent="nZQhXkqVhuCxKCc_rjwz-1" source="QTP2n4AatyaKwR-8FhE4-20" target="QTP2n4AatyaKwR-8FhE4-25" edge="1">
          <mxGeometry width="50" height="50" relative="1" as="geometry">
            <mxPoint x="170" y="200" as="sourcePoint" />
            <mxPoint x="220" y="150" as="targetPoint" />
            <Array as="points" />
          </mxGeometry>
        </mxCell>
        <mxCell id="QTP2n4AatyaKwR-8FhE4-40" value="" style="shape=table;startSize=0;container=1;collapsible=0;childLayout=tableLayout;sketch=1;curveFitting=1;jiggle=2;rounded=1;movable=0;resizable=0;rotatable=0;deletable=0;editable=0;locked=1;connectable=0;labelBackgroundColor=none;fillColor=#F2CC8F;strokeColor=#E07A5F;fontColor=#393C56;" parent="nZQhXkqVhuCxKCc_rjwz-1" vertex="1">
          <mxGeometry x="530" y="170" width="180" height="40" as="geometry" />
        </mxCell>
        <mxCell id="QTP2n4AatyaKwR-8FhE4-41" value="" style="shape=tableRow;horizontal=0;startSize=0;swimlaneHead=0;swimlaneBody=0;strokeColor=#E07A5F;top=0;left=0;bottom=0;right=0;collapsible=0;dropTarget=0;fillColor=none;points=[[0,0.5],[1,0.5]];portConstraint=eastwest;sketch=1;curveFitting=1;jiggle=2;rounded=1;movable=0;resizable=0;rotatable=0;deletable=0;editable=0;locked=1;connectable=0;labelBackgroundColor=none;fontColor=#393C56;" parent="QTP2n4AatyaKwR-8FhE4-40" vertex="1">
          <mxGeometry width="180" height="40" as="geometry" />
        </mxCell>
        <mxCell id="QTP2n4AatyaKwR-8FhE4-42" value="ID6" style="shape=partialRectangle;html=1;whiteSpace=wrap;connectable=0;strokeColor=#E07A5F;overflow=hidden;fillColor=#F2CC8F;top=0;left=0;bottom=0;right=0;pointerEvents=1;fontColor=#393C56;sketch=1;curveFitting=1;jiggle=2;rounded=1;movable=0;resizable=0;rotatable=0;deletable=0;editable=0;locked=1;labelBackgroundColor=none;" parent="QTP2n4AatyaKwR-8FhE4-41" vertex="1">
          <mxGeometry width="60" height="40" as="geometry">
            <mxRectangle width="60" height="40" as="alternateBounds" />
          </mxGeometry>
        </mxCell>
        <mxCell id="QTP2n4AatyaKwR-8FhE4-43" value="ID7" style="shape=partialRectangle;html=1;whiteSpace=wrap;connectable=0;strokeColor=#E07A5F;overflow=hidden;fillColor=none;top=0;left=0;bottom=0;right=0;pointerEvents=1;sketch=1;curveFitting=1;jiggle=2;rounded=1;movable=0;resizable=0;rotatable=0;deletable=0;editable=0;locked=1;labelBackgroundColor=none;fontColor=#393C56;" parent="QTP2n4AatyaKwR-8FhE4-41" vertex="1">
          <mxGeometry x="60" width="60" height="40" as="geometry">
            <mxRectangle width="60" height="40" as="alternateBounds" />
          </mxGeometry>
        </mxCell>
        <mxCell id="QTP2n4AatyaKwR-8FhE4-44" value="ID..." style="shape=partialRectangle;html=1;whiteSpace=wrap;connectable=0;strokeColor=#E07A5F;overflow=hidden;fillColor=none;top=0;left=0;bottom=0;right=0;pointerEvents=1;sketch=1;curveFitting=1;jiggle=2;rounded=1;movable=0;resizable=0;rotatable=0;deletable=0;editable=0;locked=1;labelBackgroundColor=none;fontColor=#393C56;" parent="QTP2n4AatyaKwR-8FhE4-41" vertex="1">
          <mxGeometry x="120" width="60" height="40" as="geometry">
            <mxRectangle width="60" height="40" as="alternateBounds" />
          </mxGeometry>
        </mxCell>
        <mxCell id="QTP2n4AatyaKwR-8FhE4-45" value="" style="edgeStyle=orthogonalEdgeStyle;rounded=1;orthogonalLoop=1;jettySize=auto;html=1;fillColor=#F2CC8F;strokeColor=#E07A5F;sketch=1;curveFitting=1;jiggle=2;movable=0;resizable=0;rotatable=0;deletable=0;editable=0;locked=1;connectable=0;labelBackgroundColor=none;fontColor=default;" parent="nZQhXkqVhuCxKCc_rjwz-1" source="QTP2n4AatyaKwR-8FhE4-24" target="QTP2n4AatyaKwR-8FhE4-40" edge="1">
          <mxGeometry relative="1" as="geometry" />
        </mxCell>
        <mxCell id="QTP2n4AatyaKwR-8FhE4-53" value="" style="endArrow=classic;html=1;rounded=1;exitX=1.014;exitY=1.044;exitDx=0;exitDy=0;entryX=0.243;entryY=-0.081;entryDx=0;entryDy=0;entryPerimeter=0;exitPerimeter=0;sketch=1;curveFitting=1;jiggle=2;movable=0;resizable=0;rotatable=0;deletable=0;editable=0;locked=1;connectable=0;labelBackgroundColor=none;strokeColor=#E07A5F;fontColor=default;" parent="nZQhXkqVhuCxKCc_rjwz-1" source="QTP2n4AatyaKwR-8FhE4-16" target="QTP2n4AatyaKwR-8FhE4-41" edge="1">
          <mxGeometry width="50" height="50" relative="1" as="geometry">
            <mxPoint x="350" y="80" as="sourcePoint" />
            <mxPoint x="438" y="153" as="targetPoint" />
          </mxGeometry>
        </mxCell>
        <mxCell id="QTP2n4AatyaKwR-8FhE4-54" value="" style="shape=table;startSize=0;container=1;collapsible=0;childLayout=tableLayout;sketch=1;hachureGap=4;jiggle=2;curveFitting=1;rounded=1;movable=0;resizable=0;rotatable=0;deletable=0;editable=0;locked=1;connectable=0;labelBackgroundColor=none;fillColor=#F2CC8F;strokeColor=#E07A5F;fontColor=#393C56;" parent="nZQhXkqVhuCxKCc_rjwz-1" vertex="1">
          <mxGeometry x="270" y="210" width="60" height="160" as="geometry" />
        </mxCell>
        <mxCell id="QTP2n4AatyaKwR-8FhE4-55" value="" style="shape=tableRow;horizontal=0;startSize=0;swimlaneHead=0;swimlaneBody=0;strokeColor=#E07A5F;top=0;left=0;bottom=0;right=0;collapsible=0;dropTarget=0;fillColor=none;points=[[0,0.5],[1,0.5]];portConstraint=eastwest;sketch=1;hachureGap=4;jiggle=2;curveFitting=1;rounded=1;movable=0;resizable=0;rotatable=0;deletable=0;editable=0;locked=1;connectable=0;labelBackgroundColor=none;fontColor=#393C56;" parent="QTP2n4AatyaKwR-8FhE4-54" vertex="1">
          <mxGeometry width="60" height="40" as="geometry" />
        </mxCell>
        <mxCell id="QTP2n4AatyaKwR-8FhE4-56" value="苏州" style="shape=partialRectangle;html=1;whiteSpace=wrap;connectable=0;strokeColor=#E07A5F;overflow=hidden;fillColor=none;top=0;left=0;bottom=0;right=0;pointerEvents=1;sketch=1;hachureGap=4;jiggle=2;curveFitting=1;rounded=1;movable=0;resizable=0;rotatable=0;deletable=0;editable=0;locked=1;labelBackgroundColor=none;fontColor=#393C56;" parent="QTP2n4AatyaKwR-8FhE4-55" vertex="1">
          <mxGeometry width="60" height="40" as="geometry">
            <mxRectangle width="60" height="40" as="alternateBounds" />
          </mxGeometry>
        </mxCell>
        <mxCell id="QTP2n4AatyaKwR-8FhE4-57" value="" style="shape=tableRow;horizontal=0;startSize=0;swimlaneHead=0;swimlaneBody=0;strokeColor=#E07A5F;top=0;left=0;bottom=0;right=0;collapsible=0;dropTarget=0;fillColor=none;points=[[0,0.5],[1,0.5]];portConstraint=eastwest;sketch=1;hachureGap=4;jiggle=2;curveFitting=1;rounded=1;movable=0;resizable=0;rotatable=0;deletable=0;editable=0;locked=1;connectable=0;labelBackgroundColor=none;fontColor=#393C56;" parent="QTP2n4AatyaKwR-8FhE4-54" vertex="1">
          <mxGeometry y="40" width="60" height="40" as="geometry" />
        </mxCell>
        <mxCell id="QTP2n4AatyaKwR-8FhE4-58" value="张三" style="shape=partialRectangle;html=1;whiteSpace=wrap;connectable=0;strokeColor=#E07A5F;overflow=hidden;fillColor=none;top=0;left=0;bottom=0;right=0;pointerEvents=1;sketch=1;hachureGap=4;jiggle=2;curveFitting=1;rounded=1;movable=0;resizable=0;rotatable=0;deletable=0;editable=0;locked=1;labelBackgroundColor=none;fontColor=#393C56;" parent="QTP2n4AatyaKwR-8FhE4-57" vertex="1">
          <mxGeometry width="60" height="40" as="geometry">
            <mxRectangle width="60" height="40" as="alternateBounds" />
          </mxGeometry>
        </mxCell>
        <mxCell id="QTP2n4AatyaKwR-8FhE4-59" value="" style="shape=tableRow;horizontal=0;startSize=0;swimlaneHead=0;swimlaneBody=0;strokeColor=#E07A5F;top=0;left=0;bottom=0;right=0;collapsible=0;dropTarget=0;fillColor=none;points=[[0,0.5],[1,0.5]];portConstraint=eastwest;sketch=1;hachureGap=4;jiggle=2;curveFitting=1;rounded=1;movable=0;resizable=0;rotatable=0;deletable=0;editable=0;locked=1;connectable=0;labelBackgroundColor=none;fontColor=#393C56;" parent="QTP2n4AatyaKwR-8FhE4-54" vertex="1">
          <mxGeometry y="80" width="60" height="40" as="geometry" />
        </mxCell>
        <mxCell id="QTP2n4AatyaKwR-8FhE4-60" value="20" style="shape=partialRectangle;html=1;whiteSpace=wrap;connectable=0;strokeColor=#E07A5F;overflow=hidden;fillColor=none;top=0;left=0;bottom=0;right=0;pointerEvents=1;sketch=1;hachureGap=4;jiggle=2;curveFitting=1;rounded=1;movable=0;resizable=0;rotatable=0;deletable=0;editable=0;locked=1;labelBackgroundColor=none;fontColor=#393C56;" parent="QTP2n4AatyaKwR-8FhE4-59" vertex="1">
          <mxGeometry width="60" height="40" as="geometry">
            <mxRectangle width="60" height="40" as="alternateBounds" />
          </mxGeometry>
        </mxCell>
        <mxCell id="QTP2n4AatyaKwR-8FhE4-61" value="" style="shape=tableRow;horizontal=0;startSize=0;swimlaneHead=0;swimlaneBody=0;strokeColor=#E07A5F;top=0;left=0;bottom=0;right=0;collapsible=0;dropTarget=0;fillColor=none;points=[[0,0.5],[1,0.5]];portConstraint=eastwest;sketch=1;hachureGap=4;jiggle=2;curveFitting=1;rounded=1;movable=0;resizable=0;rotatable=0;deletable=0;editable=0;locked=1;connectable=0;labelBackgroundColor=none;fontColor=#393C56;" parent="QTP2n4AatyaKwR-8FhE4-54" vertex="1">
          <mxGeometry y="120" width="60" height="40" as="geometry" />
        </mxCell>
        <mxCell id="QTP2n4AatyaKwR-8FhE4-62" value="..." style="shape=partialRectangle;html=1;whiteSpace=wrap;connectable=0;strokeColor=#E07A5F;overflow=hidden;fillColor=none;top=0;left=0;bottom=0;right=0;pointerEvents=1;sketch=1;hachureGap=4;jiggle=2;curveFitting=1;rounded=1;movable=0;resizable=0;rotatable=0;deletable=0;editable=0;locked=1;labelBackgroundColor=none;fontColor=#393C56;" parent="QTP2n4AatyaKwR-8FhE4-61" vertex="1">
          <mxGeometry width="60" height="40" as="geometry">
            <mxRectangle width="60" height="40" as="alternateBounds" />
          </mxGeometry>
        </mxCell>
        <mxCell id="QTP2n4AatyaKwR-8FhE4-69" value="" style="shape=table;startSize=0;container=1;collapsible=0;childLayout=tableLayout;sketch=1;hachureGap=4;jiggle=2;curveFitting=1;rounded=1;movable=0;resizable=0;rotatable=0;deletable=0;editable=0;locked=1;connectable=0;labelBackgroundColor=none;fillColor=#F2CC8F;strokeColor=#E07A5F;fontColor=#393C56;" parent="nZQhXkqVhuCxKCc_rjwz-1" vertex="1">
          <mxGeometry x="330" y="210" width="60" height="160" as="geometry" />
        </mxCell>
        <mxCell id="QTP2n4AatyaKwR-8FhE4-70" value="" style="shape=tableRow;horizontal=0;startSize=0;swimlaneHead=0;swimlaneBody=0;strokeColor=#E07A5F;top=0;left=0;bottom=0;right=0;collapsible=0;dropTarget=0;fillColor=none;points=[[0,0.5],[1,0.5]];portConstraint=eastwest;sketch=1;hachureGap=4;jiggle=2;curveFitting=1;rounded=1;movable=0;resizable=0;rotatable=0;deletable=0;editable=0;locked=1;connectable=0;labelBackgroundColor=none;fontColor=#393C56;" parent="QTP2n4AatyaKwR-8FhE4-69" vertex="1">
          <mxGeometry width="60" height="40" as="geometry" />
        </mxCell>
        <mxCell id="QTP2n4AatyaKwR-8FhE4-71" value="苏州" style="shape=partialRectangle;html=1;whiteSpace=wrap;connectable=0;strokeColor=#E07A5F;overflow=hidden;fillColor=none;top=0;left=0;bottom=0;right=0;pointerEvents=1;sketch=1;hachureGap=4;jiggle=2;curveFitting=1;rounded=1;movable=0;resizable=0;rotatable=0;deletable=0;editable=0;locked=1;labelBackgroundColor=none;fontColor=#393C56;" parent="QTP2n4AatyaKwR-8FhE4-70" vertex="1">
          <mxGeometry width="60" height="40" as="geometry">
            <mxRectangle width="60" height="40" as="alternateBounds" />
          </mxGeometry>
        </mxCell>
        <mxCell id="QTP2n4AatyaKwR-8FhE4-72" value="" style="shape=tableRow;horizontal=0;startSize=0;swimlaneHead=0;swimlaneBody=0;strokeColor=#E07A5F;top=0;left=0;bottom=0;right=0;collapsible=0;dropTarget=0;fillColor=none;points=[[0,0.5],[1,0.5]];portConstraint=eastwest;sketch=1;hachureGap=4;jiggle=2;curveFitting=1;rounded=1;movable=0;resizable=0;rotatable=0;deletable=0;editable=0;locked=1;connectable=0;labelBackgroundColor=none;fontColor=#393C56;" parent="QTP2n4AatyaKwR-8FhE4-69" vertex="1">
          <mxGeometry y="40" width="60" height="40" as="geometry" />
        </mxCell>
        <mxCell id="QTP2n4AatyaKwR-8FhE4-73" value="李四" style="shape=partialRectangle;html=1;whiteSpace=wrap;connectable=0;strokeColor=#E07A5F;overflow=hidden;fillColor=none;top=0;left=0;bottom=0;right=0;pointerEvents=1;sketch=1;hachureGap=4;jiggle=2;curveFitting=1;rounded=1;movable=0;resizable=0;rotatable=0;deletable=0;editable=0;locked=1;labelBackgroundColor=none;fontColor=#393C56;" parent="QTP2n4AatyaKwR-8FhE4-72" vertex="1">
          <mxGeometry width="60" height="40" as="geometry">
            <mxRectangle width="60" height="40" as="alternateBounds" />
          </mxGeometry>
        </mxCell>
        <mxCell id="QTP2n4AatyaKwR-8FhE4-74" value="" style="shape=tableRow;horizontal=0;startSize=0;swimlaneHead=0;swimlaneBody=0;strokeColor=#E07A5F;top=0;left=0;bottom=0;right=0;collapsible=0;dropTarget=0;fillColor=none;points=[[0,0.5],[1,0.5]];portConstraint=eastwest;sketch=1;hachureGap=4;jiggle=2;curveFitting=1;rounded=1;movable=0;resizable=0;rotatable=0;deletable=0;editable=0;locked=1;connectable=0;labelBackgroundColor=none;fontColor=#393C56;" parent="QTP2n4AatyaKwR-8FhE4-69" vertex="1">
          <mxGeometry y="80" width="60" height="40" as="geometry" />
        </mxCell>
        <mxCell id="QTP2n4AatyaKwR-8FhE4-75" value="21" style="shape=partialRectangle;html=1;whiteSpace=wrap;connectable=0;strokeColor=#E07A5F;overflow=hidden;fillColor=none;top=0;left=0;bottom=0;right=0;pointerEvents=1;sketch=1;hachureGap=4;jiggle=2;curveFitting=1;rounded=1;movable=0;resizable=0;rotatable=0;deletable=0;editable=0;locked=1;labelBackgroundColor=none;fontColor=#393C56;" parent="QTP2n4AatyaKwR-8FhE4-74" vertex="1">
          <mxGeometry width="60" height="40" as="geometry">
            <mxRectangle width="60" height="40" as="alternateBounds" />
          </mxGeometry>
        </mxCell>
        <mxCell id="QTP2n4AatyaKwR-8FhE4-76" value="" style="shape=tableRow;horizontal=0;startSize=0;swimlaneHead=0;swimlaneBody=0;strokeColor=#E07A5F;top=0;left=0;bottom=0;right=0;collapsible=0;dropTarget=0;fillColor=none;points=[[0,0.5],[1,0.5]];portConstraint=eastwest;sketch=1;hachureGap=4;jiggle=2;curveFitting=1;rounded=1;movable=0;resizable=0;rotatable=0;deletable=0;editable=0;locked=1;connectable=0;labelBackgroundColor=none;fontColor=#393C56;" parent="QTP2n4AatyaKwR-8FhE4-69" vertex="1">
          <mxGeometry y="120" width="60" height="40" as="geometry" />
        </mxCell>
        <mxCell id="QTP2n4AatyaKwR-8FhE4-77" value="..." style="shape=partialRectangle;html=1;whiteSpace=wrap;connectable=0;strokeColor=#E07A5F;overflow=hidden;fillColor=none;top=0;left=0;bottom=0;right=0;pointerEvents=1;sketch=1;hachureGap=4;jiggle=2;curveFitting=1;rounded=1;movable=0;resizable=0;rotatable=0;deletable=0;editable=0;locked=1;labelBackgroundColor=none;fontColor=#393C56;" parent="QTP2n4AatyaKwR-8FhE4-76" vertex="1">
          <mxGeometry width="60" height="40" as="geometry">
            <mxRectangle width="60" height="40" as="alternateBounds" />
          </mxGeometry>
        </mxCell>
        <mxCell id="QTP2n4AatyaKwR-8FhE4-87" value="" style="shape=table;startSize=0;container=1;collapsible=0;childLayout=tableLayout;sketch=1;hachureGap=4;jiggle=2;curveFitting=1;fontColor=#393C56;rounded=1;labelBorderColor=none;textOpacity=60;horizontal=1;movable=0;resizable=0;rotatable=0;deletable=0;editable=0;locked=1;connectable=0;labelBackgroundColor=none;fillColor=#F2CC8F;strokeColor=#E07A5F;" parent="nZQhXkqVhuCxKCc_rjwz-1" vertex="1">
          <mxGeometry x="200" y="210" width="60" height="160" as="geometry" />
        </mxCell>
        <mxCell id="QTP2n4AatyaKwR-8FhE4-88" value="" style="shape=tableRow;horizontal=1;startSize=0;swimlaneHead=0;swimlaneBody=0;strokeColor=#E07A5F;top=0;left=0;bottom=0;right=0;collapsible=0;dropTarget=0;fillColor=none;points=[[0,0.5],[1,0.5]];portConstraint=eastwest;sketch=1;hachureGap=4;jiggle=2;curveFitting=1;fontColor=#393C56;rounded=1;labelBorderColor=none;textOpacity=60;movable=0;resizable=0;rotatable=0;deletable=0;editable=0;locked=1;connectable=0;labelBackgroundColor=none;" parent="QTP2n4AatyaKwR-8FhE4-87" vertex="1">
          <mxGeometry width="60" height="40" as="geometry" />
        </mxCell>
        <mxCell id="QTP2n4AatyaKwR-8FhE4-89" value="city" style="shape=partialRectangle;html=1;whiteSpace=wrap;connectable=0;strokeColor=#E07A5F;overflow=hidden;fillColor=none;top=0;left=0;bottom=0;right=0;pointerEvents=1;sketch=1;hachureGap=4;jiggle=2;curveFitting=1;fontColor=#393C56;rounded=1;labelBorderColor=none;textOpacity=60;horizontal=1;movable=0;resizable=0;rotatable=0;deletable=0;editable=0;locked=1;labelBackgroundColor=none;" parent="QTP2n4AatyaKwR-8FhE4-88" vertex="1">
          <mxGeometry width="60" height="40" as="geometry">
            <mxRectangle width="60" height="40" as="alternateBounds" />
          </mxGeometry>
        </mxCell>
        <mxCell id="QTP2n4AatyaKwR-8FhE4-90" value="" style="shape=tableRow;horizontal=1;startSize=0;swimlaneHead=0;swimlaneBody=0;strokeColor=#E07A5F;top=0;left=0;bottom=0;right=0;collapsible=0;dropTarget=0;fillColor=none;points=[[0,0.5],[1,0.5]];portConstraint=eastwest;sketch=1;hachureGap=4;jiggle=2;curveFitting=1;fontColor=#393C56;rounded=1;labelBorderColor=none;textOpacity=60;movable=0;resizable=0;rotatable=0;deletable=0;editable=0;locked=1;connectable=0;labelBackgroundColor=none;" parent="QTP2n4AatyaKwR-8FhE4-87" vertex="1">
          <mxGeometry y="40" width="60" height="40" as="geometry" />
        </mxCell>
        <mxCell id="QTP2n4AatyaKwR-8FhE4-91" value="name" style="shape=partialRectangle;html=1;whiteSpace=wrap;connectable=0;strokeColor=#E07A5F;overflow=hidden;fillColor=none;top=0;left=0;bottom=0;right=0;pointerEvents=1;sketch=1;hachureGap=4;jiggle=2;curveFitting=1;fontColor=#393C56;rounded=1;labelBorderColor=none;textOpacity=60;horizontal=1;movable=0;resizable=0;rotatable=0;deletable=0;editable=0;locked=1;labelBackgroundColor=none;" parent="QTP2n4AatyaKwR-8FhE4-90" vertex="1">
          <mxGeometry width="60" height="40" as="geometry">
            <mxRectangle width="60" height="40" as="alternateBounds" />
          </mxGeometry>
        </mxCell>
        <mxCell id="QTP2n4AatyaKwR-8FhE4-92" value="" style="shape=tableRow;horizontal=1;startSize=0;swimlaneHead=0;swimlaneBody=0;strokeColor=#E07A5F;top=0;left=0;bottom=0;right=0;collapsible=0;dropTarget=0;fillColor=none;points=[[0,0.5],[1,0.5]];portConstraint=eastwest;sketch=1;hachureGap=4;jiggle=2;curveFitting=1;fontColor=#393C56;rounded=1;labelBorderColor=none;textOpacity=60;movable=0;resizable=0;rotatable=0;deletable=0;editable=0;locked=1;connectable=0;labelBackgroundColor=none;" parent="QTP2n4AatyaKwR-8FhE4-87" vertex="1">
          <mxGeometry y="80" width="60" height="40" as="geometry" />
        </mxCell>
        <mxCell id="QTP2n4AatyaKwR-8FhE4-93" value="age" style="shape=partialRectangle;html=1;whiteSpace=wrap;connectable=0;strokeColor=#E07A5F;overflow=hidden;fillColor=none;top=0;left=0;bottom=0;right=0;pointerEvents=1;sketch=1;hachureGap=4;jiggle=2;curveFitting=1;fontColor=#393C56;rounded=1;labelBorderColor=none;textOpacity=60;horizontal=1;movable=0;resizable=0;rotatable=0;deletable=0;editable=0;locked=1;labelBackgroundColor=none;" parent="QTP2n4AatyaKwR-8FhE4-92" vertex="1">
          <mxGeometry width="60" height="40" as="geometry">
            <mxRectangle width="60" height="40" as="alternateBounds" />
          </mxGeometry>
        </mxCell>
        <mxCell id="QTP2n4AatyaKwR-8FhE4-94" value="" style="shape=tableRow;horizontal=1;startSize=0;swimlaneHead=0;swimlaneBody=0;strokeColor=#E07A5F;top=0;left=0;bottom=0;right=0;collapsible=0;dropTarget=0;fillColor=none;points=[[0,0.5],[1,0.5]];portConstraint=eastwest;sketch=1;hachureGap=4;jiggle=2;curveFitting=1;fontColor=#393C56;rounded=1;labelBorderColor=none;textOpacity=60;movable=0;resizable=0;rotatable=0;deletable=0;editable=0;locked=1;connectable=0;labelBackgroundColor=none;" parent="QTP2n4AatyaKwR-8FhE4-87" vertex="1">
          <mxGeometry y="120" width="60" height="40" as="geometry" />
        </mxCell>
        <mxCell id="QTP2n4AatyaKwR-8FhE4-95" value="..." style="shape=partialRectangle;html=1;whiteSpace=wrap;connectable=0;strokeColor=#E07A5F;overflow=hidden;fillColor=none;top=0;left=0;bottom=0;right=0;pointerEvents=1;sketch=1;hachureGap=4;jiggle=2;curveFitting=1;fontColor=#393C56;rounded=1;labelBorderColor=none;textOpacity=60;horizontal=1;movable=0;resizable=0;rotatable=0;deletable=0;editable=0;locked=1;labelBackgroundColor=none;" parent="QTP2n4AatyaKwR-8FhE4-94" vertex="1">
          <mxGeometry width="60" height="40" as="geometry">
            <mxRectangle width="60" height="40" as="alternateBounds" />
          </mxGeometry>
        </mxCell>
        <mxCell id="QTP2n4AatyaKwR-8FhE4-96" value="" style="shape=table;startSize=0;container=1;collapsible=0;childLayout=tableLayout;sketch=1;hachureGap=4;jiggle=2;curveFitting=1;rounded=1;movable=0;resizable=0;rotatable=0;deletable=0;editable=0;locked=1;connectable=0;labelBackgroundColor=none;fillColor=#F2CC8F;strokeColor=#E07A5F;fontColor=#393C56;" parent="nZQhXkqVhuCxKCc_rjwz-1" vertex="1">
          <mxGeometry x="530" y="210" width="60" height="160" as="geometry" />
        </mxCell>
        <mxCell id="QTP2n4AatyaKwR-8FhE4-97" value="" style="shape=tableRow;horizontal=0;startSize=0;swimlaneHead=0;swimlaneBody=0;strokeColor=#E07A5F;top=0;left=0;bottom=0;right=0;collapsible=0;dropTarget=0;fillColor=none;points=[[0,0.5],[1,0.5]];portConstraint=eastwest;sketch=1;hachureGap=4;jiggle=2;curveFitting=1;rounded=1;movable=0;resizable=0;rotatable=0;deletable=0;editable=0;locked=1;connectable=0;labelBackgroundColor=none;fontColor=#393C56;" parent="QTP2n4AatyaKwR-8FhE4-96" vertex="1">
          <mxGeometry width="60" height="40" as="geometry" />
        </mxCell>
        <mxCell id="QTP2n4AatyaKwR-8FhE4-98" value="。。。" style="shape=partialRectangle;html=1;whiteSpace=wrap;connectable=0;strokeColor=#E07A5F;overflow=hidden;fillColor=none;top=0;left=0;bottom=0;right=0;pointerEvents=1;sketch=1;hachureGap=4;jiggle=2;curveFitting=1;rounded=1;movable=0;resizable=0;rotatable=0;deletable=0;editable=0;locked=1;labelBackgroundColor=none;fontColor=#393C56;" parent="QTP2n4AatyaKwR-8FhE4-97" vertex="1">
          <mxGeometry width="60" height="40" as="geometry">
            <mxRectangle width="60" height="40" as="alternateBounds" />
          </mxGeometry>
        </mxCell>
        <mxCell id="QTP2n4AatyaKwR-8FhE4-99" value="" style="shape=tableRow;horizontal=0;startSize=0;swimlaneHead=0;swimlaneBody=0;strokeColor=#E07A5F;top=0;left=0;bottom=0;right=0;collapsible=0;dropTarget=0;fillColor=none;points=[[0,0.5],[1,0.5]];portConstraint=eastwest;sketch=1;hachureGap=4;jiggle=2;curveFitting=1;rounded=1;movable=0;resizable=0;rotatable=0;deletable=0;editable=0;locked=1;connectable=0;labelBackgroundColor=none;fontColor=#393C56;" parent="QTP2n4AatyaKwR-8FhE4-96" vertex="1">
          <mxGeometry y="40" width="60" height="40" as="geometry" />
        </mxCell>
        <mxCell id="QTP2n4AatyaKwR-8FhE4-100" value="..." style="shape=partialRectangle;html=1;whiteSpace=wrap;connectable=0;strokeColor=#E07A5F;overflow=hidden;fillColor=none;top=0;left=0;bottom=0;right=0;pointerEvents=1;sketch=1;hachureGap=4;jiggle=2;curveFitting=1;rounded=1;movable=0;resizable=0;rotatable=0;deletable=0;editable=0;locked=1;labelBackgroundColor=none;fontColor=#393C56;" parent="QTP2n4AatyaKwR-8FhE4-99" vertex="1">
          <mxGeometry width="60" height="40" as="geometry">
            <mxRectangle width="60" height="40" as="alternateBounds" />
          </mxGeometry>
        </mxCell>
        <mxCell id="QTP2n4AatyaKwR-8FhE4-101" value="" style="shape=tableRow;horizontal=0;startSize=0;swimlaneHead=0;swimlaneBody=0;strokeColor=#E07A5F;top=0;left=0;bottom=0;right=0;collapsible=0;dropTarget=0;fillColor=none;points=[[0,0.5],[1,0.5]];portConstraint=eastwest;sketch=1;hachureGap=4;jiggle=2;curveFitting=1;rounded=1;movable=0;resizable=0;rotatable=0;deletable=0;editable=0;locked=1;connectable=0;labelBackgroundColor=none;fontColor=#393C56;" parent="QTP2n4AatyaKwR-8FhE4-96" vertex="1">
          <mxGeometry y="80" width="60" height="40" as="geometry" />
        </mxCell>
        <mxCell id="QTP2n4AatyaKwR-8FhE4-102" value="..." style="shape=partialRectangle;html=1;whiteSpace=wrap;connectable=0;strokeColor=#E07A5F;overflow=hidden;fillColor=none;top=0;left=0;bottom=0;right=0;pointerEvents=1;sketch=1;hachureGap=4;jiggle=2;curveFitting=1;rounded=1;movable=0;resizable=0;rotatable=0;deletable=0;editable=0;locked=1;labelBackgroundColor=none;fontColor=#393C56;" parent="QTP2n4AatyaKwR-8FhE4-101" vertex="1">
          <mxGeometry width="60" height="40" as="geometry">
            <mxRectangle width="60" height="40" as="alternateBounds" />
          </mxGeometry>
        </mxCell>
        <mxCell id="QTP2n4AatyaKwR-8FhE4-103" value="" style="shape=tableRow;horizontal=0;startSize=0;swimlaneHead=0;swimlaneBody=0;strokeColor=#E07A5F;top=0;left=0;bottom=0;right=0;collapsible=0;dropTarget=0;fillColor=none;points=[[0,0.5],[1,0.5]];portConstraint=eastwest;sketch=1;hachureGap=4;jiggle=2;curveFitting=1;rounded=1;movable=0;resizable=0;rotatable=0;deletable=0;editable=0;locked=1;connectable=0;labelBackgroundColor=none;fontColor=#393C56;" parent="QTP2n4AatyaKwR-8FhE4-96" vertex="1">
          <mxGeometry y="120" width="60" height="40" as="geometry" />
        </mxCell>
        <mxCell id="QTP2n4AatyaKwR-8FhE4-104" value="..." style="shape=partialRectangle;html=1;whiteSpace=wrap;connectable=0;strokeColor=#E07A5F;overflow=hidden;fillColor=none;top=0;left=0;bottom=0;right=0;pointerEvents=1;sketch=1;hachureGap=4;jiggle=2;curveFitting=1;rounded=1;movable=0;resizable=0;rotatable=0;deletable=0;editable=0;locked=1;labelBackgroundColor=none;fontColor=#393C56;" parent="QTP2n4AatyaKwR-8FhE4-103" vertex="1">
          <mxGeometry width="60" height="40" as="geometry">
            <mxRectangle width="60" height="40" as="alternateBounds" />
          </mxGeometry>
        </mxCell>
        <mxCell id="QTP2n4AatyaKwR-8FhE4-105" value="" style="shape=table;startSize=0;container=1;collapsible=0;childLayout=tableLayout;sketch=1;hachureGap=4;jiggle=2;curveFitting=1;rounded=1;movable=0;resizable=0;rotatable=0;deletable=0;editable=0;locked=1;connectable=0;labelBackgroundColor=none;fillColor=#F2CC8F;strokeColor=#E07A5F;fontColor=#393C56;" parent="nZQhXkqVhuCxKCc_rjwz-1" vertex="1">
          <mxGeometry x="590" y="210" width="60" height="160" as="geometry" />
        </mxCell>
        <mxCell id="QTP2n4AatyaKwR-8FhE4-106" value="" style="shape=tableRow;horizontal=0;startSize=0;swimlaneHead=0;swimlaneBody=0;strokeColor=#E07A5F;top=0;left=0;bottom=0;right=0;collapsible=0;dropTarget=0;fillColor=none;points=[[0,0.5],[1,0.5]];portConstraint=eastwest;sketch=1;hachureGap=4;jiggle=2;curveFitting=1;rounded=1;movable=0;resizable=0;rotatable=0;deletable=0;editable=0;locked=1;connectable=0;labelBackgroundColor=none;fontColor=#393C56;" parent="QTP2n4AatyaKwR-8FhE4-105" vertex="1">
          <mxGeometry width="60" height="40" as="geometry" />
        </mxCell>
        <mxCell id="QTP2n4AatyaKwR-8FhE4-107" value="。。。" style="shape=partialRectangle;html=1;whiteSpace=wrap;connectable=0;strokeColor=#E07A5F;overflow=hidden;fillColor=none;top=0;left=0;bottom=0;right=0;pointerEvents=1;sketch=1;hachureGap=4;jiggle=2;curveFitting=1;rounded=1;movable=0;resizable=0;rotatable=0;deletable=0;editable=0;locked=1;labelBackgroundColor=none;fontColor=#393C56;" parent="QTP2n4AatyaKwR-8FhE4-106" vertex="1">
          <mxGeometry width="60" height="40" as="geometry">
            <mxRectangle width="60" height="40" as="alternateBounds" />
          </mxGeometry>
        </mxCell>
        <mxCell id="QTP2n4AatyaKwR-8FhE4-108" value="" style="shape=tableRow;horizontal=0;startSize=0;swimlaneHead=0;swimlaneBody=0;strokeColor=#E07A5F;top=0;left=0;bottom=0;right=0;collapsible=0;dropTarget=0;fillColor=none;points=[[0,0.5],[1,0.5]];portConstraint=eastwest;sketch=1;hachureGap=4;jiggle=2;curveFitting=1;rounded=1;movable=0;resizable=0;rotatable=0;deletable=0;editable=0;locked=1;connectable=0;labelBackgroundColor=none;fontColor=#393C56;" parent="QTP2n4AatyaKwR-8FhE4-105" vertex="1">
          <mxGeometry y="40" width="60" height="40" as="geometry" />
        </mxCell>
        <mxCell id="QTP2n4AatyaKwR-8FhE4-109" value="..." style="shape=partialRectangle;html=1;whiteSpace=wrap;connectable=0;strokeColor=#E07A5F;overflow=hidden;fillColor=none;top=0;left=0;bottom=0;right=0;pointerEvents=1;sketch=1;hachureGap=4;jiggle=2;curveFitting=1;rounded=1;movable=0;resizable=0;rotatable=0;deletable=0;editable=0;locked=1;labelBackgroundColor=none;fontColor=#393C56;" parent="QTP2n4AatyaKwR-8FhE4-108" vertex="1">
          <mxGeometry width="60" height="40" as="geometry">
            <mxRectangle width="60" height="40" as="alternateBounds" />
          </mxGeometry>
        </mxCell>
        <mxCell id="QTP2n4AatyaKwR-8FhE4-110" value="" style="shape=tableRow;horizontal=0;startSize=0;swimlaneHead=0;swimlaneBody=0;strokeColor=#E07A5F;top=0;left=0;bottom=0;right=0;collapsible=0;dropTarget=0;fillColor=none;points=[[0,0.5],[1,0.5]];portConstraint=eastwest;sketch=1;hachureGap=4;jiggle=2;curveFitting=1;rounded=1;movable=0;resizable=0;rotatable=0;deletable=0;editable=0;locked=1;connectable=0;labelBackgroundColor=none;fontColor=#393C56;" parent="QTP2n4AatyaKwR-8FhE4-105" vertex="1">
          <mxGeometry y="80" width="60" height="40" as="geometry" />
        </mxCell>
        <mxCell id="QTP2n4AatyaKwR-8FhE4-111" value="..." style="shape=partialRectangle;html=1;whiteSpace=wrap;connectable=0;strokeColor=#E07A5F;overflow=hidden;fillColor=none;top=0;left=0;bottom=0;right=0;pointerEvents=1;sketch=1;hachureGap=4;jiggle=2;curveFitting=1;rounded=1;movable=0;resizable=0;rotatable=0;deletable=0;editable=0;locked=1;labelBackgroundColor=none;fontColor=#393C56;" parent="QTP2n4AatyaKwR-8FhE4-110" vertex="1">
          <mxGeometry width="60" height="40" as="geometry">
            <mxRectangle width="60" height="40" as="alternateBounds" />
          </mxGeometry>
        </mxCell>
        <mxCell id="QTP2n4AatyaKwR-8FhE4-112" value="" style="shape=tableRow;horizontal=0;startSize=0;swimlaneHead=0;swimlaneBody=0;strokeColor=#E07A5F;top=0;left=0;bottom=0;right=0;collapsible=0;dropTarget=0;fillColor=none;points=[[0,0.5],[1,0.5]];portConstraint=eastwest;sketch=1;hachureGap=4;jiggle=2;curveFitting=1;rounded=1;movable=0;resizable=0;rotatable=0;deletable=0;editable=0;locked=1;connectable=0;labelBackgroundColor=none;fontColor=#393C56;" parent="QTP2n4AatyaKwR-8FhE4-105" vertex="1">
          <mxGeometry y="120" width="60" height="40" as="geometry" />
        </mxCell>
        <mxCell id="QTP2n4AatyaKwR-8FhE4-113" value="..." style="shape=partialRectangle;html=1;whiteSpace=wrap;connectable=0;strokeColor=#E07A5F;overflow=hidden;fillColor=none;top=0;left=0;bottom=0;right=0;pointerEvents=1;sketch=1;hachureGap=4;jiggle=2;curveFitting=1;rounded=1;movable=0;resizable=0;rotatable=0;deletable=0;editable=0;locked=1;labelBackgroundColor=none;fontColor=#393C56;" parent="QTP2n4AatyaKwR-8FhE4-112" vertex="1">
          <mxGeometry width="60" height="40" as="geometry">
            <mxRectangle width="60" height="40" as="alternateBounds" />
          </mxGeometry>
        </mxCell>
        <mxCell id="QTP2n4AatyaKwR-8FhE4-114" value="" style="shape=table;startSize=0;container=1;collapsible=0;childLayout=tableLayout;sketch=1;hachureGap=4;jiggle=2;curveFitting=1;rounded=1;movable=0;resizable=0;rotatable=0;deletable=0;editable=0;locked=1;connectable=0;labelBackgroundColor=none;fillColor=#F2CC8F;strokeColor=#E07A5F;fontColor=#393C56;" parent="nZQhXkqVhuCxKCc_rjwz-1" vertex="1">
          <mxGeometry x="650" y="210" width="60" height="160" as="geometry" />
        </mxCell>
        <mxCell id="QTP2n4AatyaKwR-8FhE4-115" value="" style="shape=tableRow;horizontal=0;startSize=0;swimlaneHead=0;swimlaneBody=0;strokeColor=#E07A5F;top=0;left=0;bottom=0;right=0;collapsible=0;dropTarget=0;fillColor=none;points=[[0,0.5],[1,0.5]];portConstraint=eastwest;sketch=1;hachureGap=4;jiggle=2;curveFitting=1;rounded=1;movable=0;resizable=0;rotatable=0;deletable=0;editable=0;locked=1;connectable=0;labelBackgroundColor=none;fontColor=#393C56;" parent="QTP2n4AatyaKwR-8FhE4-114" vertex="1">
          <mxGeometry width="60" height="40" as="geometry" />
        </mxCell>
        <mxCell id="QTP2n4AatyaKwR-8FhE4-116" value="。。。" style="shape=partialRectangle;html=1;whiteSpace=wrap;connectable=0;strokeColor=#E07A5F;overflow=hidden;fillColor=none;top=0;left=0;bottom=0;right=0;pointerEvents=1;sketch=1;hachureGap=4;jiggle=2;curveFitting=1;rounded=1;movable=0;resizable=0;rotatable=0;deletable=0;editable=0;locked=1;labelBackgroundColor=none;fontColor=#393C56;" parent="QTP2n4AatyaKwR-8FhE4-115" vertex="1">
          <mxGeometry width="60" height="40" as="geometry">
            <mxRectangle width="60" height="40" as="alternateBounds" />
          </mxGeometry>
        </mxCell>
        <mxCell id="QTP2n4AatyaKwR-8FhE4-117" value="" style="shape=tableRow;horizontal=0;startSize=0;swimlaneHead=0;swimlaneBody=0;strokeColor=#E07A5F;top=0;left=0;bottom=0;right=0;collapsible=0;dropTarget=0;fillColor=none;points=[[0,0.5],[1,0.5]];portConstraint=eastwest;sketch=1;hachureGap=4;jiggle=2;curveFitting=1;rounded=1;movable=0;resizable=0;rotatable=0;deletable=0;editable=0;locked=1;connectable=0;labelBackgroundColor=none;fontColor=#393C56;" parent="QTP2n4AatyaKwR-8FhE4-114" vertex="1">
          <mxGeometry y="40" width="60" height="40" as="geometry" />
        </mxCell>
        <mxCell id="QTP2n4AatyaKwR-8FhE4-118" value="..." style="shape=partialRectangle;html=1;whiteSpace=wrap;connectable=0;strokeColor=#E07A5F;overflow=hidden;fillColor=none;top=0;left=0;bottom=0;right=0;pointerEvents=1;sketch=1;hachureGap=4;jiggle=2;curveFitting=1;rounded=1;movable=0;resizable=0;rotatable=0;deletable=0;editable=0;locked=1;labelBackgroundColor=none;fontColor=#393C56;" parent="QTP2n4AatyaKwR-8FhE4-117" vertex="1">
          <mxGeometry width="60" height="40" as="geometry">
            <mxRectangle width="60" height="40" as="alternateBounds" />
          </mxGeometry>
        </mxCell>
        <mxCell id="QTP2n4AatyaKwR-8FhE4-119" value="" style="shape=tableRow;horizontal=0;startSize=0;swimlaneHead=0;swimlaneBody=0;strokeColor=#E07A5F;top=0;left=0;bottom=0;right=0;collapsible=0;dropTarget=0;fillColor=none;points=[[0,0.5],[1,0.5]];portConstraint=eastwest;sketch=1;hachureGap=4;jiggle=2;curveFitting=1;rounded=1;movable=0;resizable=0;rotatable=0;deletable=0;editable=0;locked=1;connectable=0;labelBackgroundColor=none;fontColor=#393C56;" parent="QTP2n4AatyaKwR-8FhE4-114" vertex="1">
          <mxGeometry y="80" width="60" height="40" as="geometry" />
        </mxCell>
        <mxCell id="QTP2n4AatyaKwR-8FhE4-120" value="..." style="shape=partialRectangle;html=1;whiteSpace=wrap;connectable=0;strokeColor=#E07A5F;overflow=hidden;fillColor=none;top=0;left=0;bottom=0;right=0;pointerEvents=1;sketch=1;hachureGap=4;jiggle=2;curveFitting=1;rounded=1;movable=0;resizable=0;rotatable=0;deletable=0;editable=0;locked=1;labelBackgroundColor=none;fontColor=#393C56;" parent="QTP2n4AatyaKwR-8FhE4-119" vertex="1">
          <mxGeometry width="60" height="40" as="geometry">
            <mxRectangle width="60" height="40" as="alternateBounds" />
          </mxGeometry>
        </mxCell>
        <mxCell id="QTP2n4AatyaKwR-8FhE4-121" value="" style="shape=tableRow;horizontal=0;startSize=0;swimlaneHead=0;swimlaneBody=0;strokeColor=#E07A5F;top=0;left=0;bottom=0;right=0;collapsible=0;dropTarget=0;fillColor=none;points=[[0,0.5],[1,0.5]];portConstraint=eastwest;sketch=1;hachureGap=4;jiggle=2;curveFitting=1;rounded=1;movable=0;resizable=0;rotatable=0;deletable=0;editable=0;locked=1;connectable=0;labelBackgroundColor=none;fontColor=#393C56;" parent="QTP2n4AatyaKwR-8FhE4-114" vertex="1">
          <mxGeometry y="120" width="60" height="40" as="geometry" />
        </mxCell>
        <mxCell id="QTP2n4AatyaKwR-8FhE4-122" value="..." style="shape=partialRectangle;html=1;whiteSpace=wrap;connectable=0;strokeColor=#E07A5F;overflow=hidden;fillColor=none;top=0;left=0;bottom=0;right=0;pointerEvents=1;sketch=1;hachureGap=4;jiggle=2;curveFitting=1;rounded=1;movable=0;resizable=0;rotatable=0;deletable=0;editable=0;locked=1;labelBackgroundColor=none;fontColor=#393C56;" parent="QTP2n4AatyaKwR-8FhE4-121" vertex="1">
          <mxGeometry width="60" height="40" as="geometry">
            <mxRectangle width="60" height="40" as="alternateBounds" />
          </mxGeometry>
        </mxCell>
        <mxCell id="QTP2n4AatyaKwR-8FhE4-123" value="" style="shape=table;startSize=0;container=1;collapsible=0;childLayout=tableLayout;sketch=1;hachureGap=4;jiggle=2;curveFitting=1;rounded=1;movable=0;resizable=0;rotatable=0;deletable=0;editable=0;locked=1;connectable=0;labelBackgroundColor=none;fillColor=#F2CC8F;strokeColor=#E07A5F;fontColor=#393C56;" parent="nZQhXkqVhuCxKCc_rjwz-1" vertex="1">
          <mxGeometry x="120" y="210" width="60" height="160" as="geometry" />
        </mxCell>
        <mxCell id="QTP2n4AatyaKwR-8FhE4-124" value="" style="shape=tableRow;horizontal=0;startSize=0;swimlaneHead=0;swimlaneBody=0;strokeColor=#E07A5F;top=0;left=0;bottom=0;right=0;collapsible=0;dropTarget=0;fillColor=none;points=[[0,0.5],[1,0.5]];portConstraint=eastwest;sketch=1;hachureGap=4;jiggle=2;curveFitting=1;rounded=1;movable=0;resizable=0;rotatable=0;deletable=0;editable=0;locked=1;connectable=0;labelBackgroundColor=none;fontColor=#393C56;" parent="QTP2n4AatyaKwR-8FhE4-123" vertex="1">
          <mxGeometry width="60" height="40" as="geometry" />
        </mxCell>
        <mxCell id="QTP2n4AatyaKwR-8FhE4-125" value="。。。" style="shape=partialRectangle;html=1;whiteSpace=wrap;connectable=0;strokeColor=#E07A5F;overflow=hidden;fillColor=none;top=0;left=0;bottom=0;right=0;pointerEvents=1;sketch=1;hachureGap=4;jiggle=2;curveFitting=1;rounded=1;movable=0;resizable=0;rotatable=0;deletable=0;editable=0;locked=1;labelBackgroundColor=none;fontColor=#393C56;" parent="QTP2n4AatyaKwR-8FhE4-124" vertex="1">
          <mxGeometry width="60" height="40" as="geometry">
            <mxRectangle width="60" height="40" as="alternateBounds" />
          </mxGeometry>
        </mxCell>
        <mxCell id="QTP2n4AatyaKwR-8FhE4-126" value="" style="shape=tableRow;horizontal=0;startSize=0;swimlaneHead=0;swimlaneBody=0;strokeColor=#E07A5F;top=0;left=0;bottom=0;right=0;collapsible=0;dropTarget=0;fillColor=none;points=[[0,0.5],[1,0.5]];portConstraint=eastwest;sketch=1;hachureGap=4;jiggle=2;curveFitting=1;rounded=1;movable=0;resizable=0;rotatable=0;deletable=0;editable=0;locked=1;connectable=0;labelBackgroundColor=none;fontColor=#393C56;" parent="QTP2n4AatyaKwR-8FhE4-123" vertex="1">
          <mxGeometry y="40" width="60" height="40" as="geometry" />
        </mxCell>
        <mxCell id="QTP2n4AatyaKwR-8FhE4-127" value="..." style="shape=partialRectangle;html=1;whiteSpace=wrap;connectable=0;strokeColor=#E07A5F;overflow=hidden;fillColor=none;top=0;left=0;bottom=0;right=0;pointerEvents=1;sketch=1;hachureGap=4;jiggle=2;curveFitting=1;rounded=1;movable=0;resizable=0;rotatable=0;deletable=0;editable=0;locked=1;labelBackgroundColor=none;fontColor=#393C56;" parent="QTP2n4AatyaKwR-8FhE4-126" vertex="1">
          <mxGeometry width="60" height="40" as="geometry">
            <mxRectangle width="60" height="40" as="alternateBounds" />
          </mxGeometry>
        </mxCell>
        <mxCell id="QTP2n4AatyaKwR-8FhE4-128" value="" style="shape=tableRow;horizontal=0;startSize=0;swimlaneHead=0;swimlaneBody=0;strokeColor=#E07A5F;top=0;left=0;bottom=0;right=0;collapsible=0;dropTarget=0;fillColor=none;points=[[0,0.5],[1,0.5]];portConstraint=eastwest;sketch=1;hachureGap=4;jiggle=2;curveFitting=1;rounded=1;movable=0;resizable=0;rotatable=0;deletable=0;editable=0;locked=1;connectable=0;labelBackgroundColor=none;fontColor=#393C56;" parent="QTP2n4AatyaKwR-8FhE4-123" vertex="1">
          <mxGeometry y="80" width="60" height="40" as="geometry" />
        </mxCell>
        <mxCell id="QTP2n4AatyaKwR-8FhE4-129" value="..." style="shape=partialRectangle;html=1;whiteSpace=wrap;connectable=0;strokeColor=#E07A5F;overflow=hidden;fillColor=none;top=0;left=0;bottom=0;right=0;pointerEvents=1;sketch=1;hachureGap=4;jiggle=2;curveFitting=1;rounded=1;movable=0;resizable=0;rotatable=0;deletable=0;editable=0;locked=1;labelBackgroundColor=none;fontColor=#393C56;" parent="QTP2n4AatyaKwR-8FhE4-128" vertex="1">
          <mxGeometry width="60" height="40" as="geometry">
            <mxRectangle width="60" height="40" as="alternateBounds" />
          </mxGeometry>
        </mxCell>
        <mxCell id="QTP2n4AatyaKwR-8FhE4-130" value="" style="shape=tableRow;horizontal=0;startSize=0;swimlaneHead=0;swimlaneBody=0;strokeColor=#E07A5F;top=0;left=0;bottom=0;right=0;collapsible=0;dropTarget=0;fillColor=none;points=[[0,0.5],[1,0.5]];portConstraint=eastwest;sketch=1;hachureGap=4;jiggle=2;curveFitting=1;rounded=1;movable=0;resizable=0;rotatable=0;deletable=0;editable=0;locked=1;connectable=0;labelBackgroundColor=none;fontColor=#393C56;" parent="QTP2n4AatyaKwR-8FhE4-123" vertex="1">
          <mxGeometry y="120" width="60" height="40" as="geometry" />
        </mxCell>
        <mxCell id="QTP2n4AatyaKwR-8FhE4-131" value="..." style="shape=partialRectangle;html=1;whiteSpace=wrap;connectable=0;strokeColor=#E07A5F;overflow=hidden;fillColor=none;top=0;left=0;bottom=0;right=0;pointerEvents=1;sketch=1;hachureGap=4;jiggle=2;curveFitting=1;rounded=1;movable=0;resizable=0;rotatable=0;deletable=0;editable=0;locked=1;labelBackgroundColor=none;fontColor=#393C56;" parent="QTP2n4AatyaKwR-8FhE4-130" vertex="1">
          <mxGeometry width="60" height="40" as="geometry">
            <mxRectangle width="60" height="40" as="alternateBounds" />
          </mxGeometry>
        </mxCell>
        <mxCell id="QTP2n4AatyaKwR-8FhE4-132" value="" style="shape=table;startSize=0;container=1;collapsible=0;childLayout=tableLayout;sketch=1;hachureGap=4;jiggle=2;curveFitting=1;rounded=1;movable=0;resizable=0;rotatable=0;deletable=0;editable=0;locked=1;connectable=0;labelBackgroundColor=none;fillColor=#F2CC8F;strokeColor=#E07A5F;fontColor=#393C56;" parent="nZQhXkqVhuCxKCc_rjwz-1" vertex="1">
          <mxGeometry x="60" y="210" width="60" height="160" as="geometry" />
        </mxCell>
        <mxCell id="QTP2n4AatyaKwR-8FhE4-133" value="" style="shape=tableRow;horizontal=0;startSize=0;swimlaneHead=0;swimlaneBody=0;strokeColor=#E07A5F;top=0;left=0;bottom=0;right=0;collapsible=0;dropTarget=0;fillColor=none;points=[[0,0.5],[1,0.5]];portConstraint=eastwest;sketch=1;hachureGap=4;jiggle=2;curveFitting=1;rounded=1;movable=0;resizable=0;rotatable=0;deletable=0;editable=0;locked=1;connectable=0;labelBackgroundColor=none;fontColor=#393C56;" parent="QTP2n4AatyaKwR-8FhE4-132" vertex="1">
          <mxGeometry width="60" height="40" as="geometry" />
        </mxCell>
        <mxCell id="QTP2n4AatyaKwR-8FhE4-134" value="。。。" style="shape=partialRectangle;html=1;whiteSpace=wrap;connectable=0;strokeColor=#E07A5F;overflow=hidden;fillColor=none;top=0;left=0;bottom=0;right=0;pointerEvents=1;sketch=1;hachureGap=4;jiggle=2;curveFitting=1;rounded=1;movable=0;resizable=0;rotatable=0;deletable=0;editable=0;locked=1;labelBackgroundColor=none;fontColor=#393C56;" parent="QTP2n4AatyaKwR-8FhE4-133" vertex="1">
          <mxGeometry width="60" height="40" as="geometry">
            <mxRectangle width="60" height="40" as="alternateBounds" />
          </mxGeometry>
        </mxCell>
        <mxCell id="QTP2n4AatyaKwR-8FhE4-135" value="" style="shape=tableRow;horizontal=0;startSize=0;swimlaneHead=0;swimlaneBody=0;strokeColor=#E07A5F;top=0;left=0;bottom=0;right=0;collapsible=0;dropTarget=0;fillColor=none;points=[[0,0.5],[1,0.5]];portConstraint=eastwest;sketch=1;hachureGap=4;jiggle=2;curveFitting=1;rounded=1;movable=0;resizable=0;rotatable=0;deletable=0;editable=0;locked=1;connectable=0;labelBackgroundColor=none;fontColor=#393C56;" parent="QTP2n4AatyaKwR-8FhE4-132" vertex="1">
          <mxGeometry y="40" width="60" height="40" as="geometry" />
        </mxCell>
        <mxCell id="QTP2n4AatyaKwR-8FhE4-136" value="..." style="shape=partialRectangle;html=1;whiteSpace=wrap;connectable=0;strokeColor=#E07A5F;overflow=hidden;fillColor=none;top=0;left=0;bottom=0;right=0;pointerEvents=1;sketch=1;hachureGap=4;jiggle=2;curveFitting=1;rounded=1;movable=0;resizable=0;rotatable=0;deletable=0;editable=0;locked=1;labelBackgroundColor=none;fontColor=#393C56;" parent="QTP2n4AatyaKwR-8FhE4-135" vertex="1">
          <mxGeometry width="60" height="40" as="geometry">
            <mxRectangle width="60" height="40" as="alternateBounds" />
          </mxGeometry>
        </mxCell>
        <mxCell id="QTP2n4AatyaKwR-8FhE4-137" value="" style="shape=tableRow;horizontal=0;startSize=0;swimlaneHead=0;swimlaneBody=0;strokeColor=#E07A5F;top=0;left=0;bottom=0;right=0;collapsible=0;dropTarget=0;fillColor=none;points=[[0,0.5],[1,0.5]];portConstraint=eastwest;sketch=1;hachureGap=4;jiggle=2;curveFitting=1;rounded=1;movable=0;resizable=0;rotatable=0;deletable=0;editable=0;locked=1;connectable=0;labelBackgroundColor=none;fontColor=#393C56;" parent="QTP2n4AatyaKwR-8FhE4-132" vertex="1">
          <mxGeometry y="80" width="60" height="40" as="geometry" />
        </mxCell>
        <mxCell id="QTP2n4AatyaKwR-8FhE4-138" value="..." style="shape=partialRectangle;html=1;whiteSpace=wrap;connectable=0;strokeColor=#E07A5F;overflow=hidden;fillColor=none;top=0;left=0;bottom=0;right=0;pointerEvents=1;sketch=1;hachureGap=4;jiggle=2;curveFitting=1;rounded=1;movable=0;resizable=0;rotatable=0;deletable=0;editable=0;locked=1;labelBackgroundColor=none;fontColor=#393C56;" parent="QTP2n4AatyaKwR-8FhE4-137" vertex="1">
          <mxGeometry width="60" height="40" as="geometry">
            <mxRectangle width="60" height="40" as="alternateBounds" />
          </mxGeometry>
        </mxCell>
        <mxCell id="QTP2n4AatyaKwR-8FhE4-139" value="" style="shape=tableRow;horizontal=0;startSize=0;swimlaneHead=0;swimlaneBody=0;strokeColor=#E07A5F;top=0;left=0;bottom=0;right=0;collapsible=0;dropTarget=0;fillColor=none;points=[[0,0.5],[1,0.5]];portConstraint=eastwest;sketch=1;hachureGap=4;jiggle=2;curveFitting=1;rounded=1;movable=0;resizable=0;rotatable=0;deletable=0;editable=0;locked=1;connectable=0;labelBackgroundColor=none;fontColor=#393C56;" parent="QTP2n4AatyaKwR-8FhE4-132" vertex="1">
          <mxGeometry y="120" width="60" height="40" as="geometry" />
        </mxCell>
        <mxCell id="QTP2n4AatyaKwR-8FhE4-140" value="..." style="shape=partialRectangle;html=1;whiteSpace=wrap;connectable=0;strokeColor=#E07A5F;overflow=hidden;fillColor=none;top=0;left=0;bottom=0;right=0;pointerEvents=1;sketch=1;hachureGap=4;jiggle=2;curveFitting=1;rounded=1;movable=0;resizable=0;rotatable=0;deletable=0;editable=0;locked=1;labelBackgroundColor=none;fontColor=#393C56;" parent="QTP2n4AatyaKwR-8FhE4-139" vertex="1">
          <mxGeometry width="60" height="40" as="geometry">
            <mxRectangle width="60" height="40" as="alternateBounds" />
          </mxGeometry>
        </mxCell>
        <mxCell id="QTP2n4AatyaKwR-8FhE4-141" value="" style="shape=table;startSize=0;container=1;collapsible=0;childLayout=tableLayout;sketch=1;hachureGap=4;jiggle=2;curveFitting=1;rounded=1;movable=0;resizable=0;rotatable=0;deletable=0;editable=0;locked=1;connectable=0;labelBackgroundColor=none;fillColor=#F2CC8F;strokeColor=#E07A5F;fontColor=#393C56;" parent="nZQhXkqVhuCxKCc_rjwz-1" vertex="1">
          <mxGeometry y="210" width="60" height="160" as="geometry" />
        </mxCell>
        <mxCell id="QTP2n4AatyaKwR-8FhE4-142" value="" style="shape=tableRow;horizontal=0;startSize=0;swimlaneHead=0;swimlaneBody=0;strokeColor=#E07A5F;top=0;left=0;bottom=0;right=0;collapsible=0;dropTarget=0;fillColor=none;points=[[0,0.5],[1,0.5]];portConstraint=eastwest;sketch=1;hachureGap=4;jiggle=2;curveFitting=1;rounded=1;movable=0;resizable=0;rotatable=0;deletable=0;editable=0;locked=1;connectable=0;labelBackgroundColor=none;fontColor=#393C56;" parent="QTP2n4AatyaKwR-8FhE4-141" vertex="1">
          <mxGeometry width="60" height="40" as="geometry" />
        </mxCell>
        <mxCell id="QTP2n4AatyaKwR-8FhE4-143" value="。。。" style="shape=partialRectangle;html=1;whiteSpace=wrap;connectable=0;strokeColor=#E07A5F;overflow=hidden;fillColor=none;top=0;left=0;bottom=0;right=0;pointerEvents=1;sketch=1;hachureGap=4;jiggle=2;curveFitting=1;rounded=1;movable=0;resizable=0;rotatable=0;deletable=0;editable=0;locked=1;labelBackgroundColor=none;fontColor=#393C56;" parent="QTP2n4AatyaKwR-8FhE4-142" vertex="1">
          <mxGeometry width="60" height="40" as="geometry">
            <mxRectangle width="60" height="40" as="alternateBounds" />
          </mxGeometry>
        </mxCell>
        <mxCell id="QTP2n4AatyaKwR-8FhE4-144" value="" style="shape=tableRow;horizontal=0;startSize=0;swimlaneHead=0;swimlaneBody=0;strokeColor=#E07A5F;top=0;left=0;bottom=0;right=0;collapsible=0;dropTarget=0;fillColor=none;points=[[0,0.5],[1,0.5]];portConstraint=eastwest;sketch=1;hachureGap=4;jiggle=2;curveFitting=1;rounded=1;movable=0;resizable=0;rotatable=0;deletable=0;editable=0;locked=1;connectable=0;labelBackgroundColor=none;fontColor=#393C56;" parent="QTP2n4AatyaKwR-8FhE4-141" vertex="1">
          <mxGeometry y="40" width="60" height="40" as="geometry" />
        </mxCell>
        <mxCell id="QTP2n4AatyaKwR-8FhE4-145" value="..." style="shape=partialRectangle;html=1;whiteSpace=wrap;connectable=0;strokeColor=#E07A5F;overflow=hidden;fillColor=none;top=0;left=0;bottom=0;right=0;pointerEvents=1;sketch=1;hachureGap=4;jiggle=2;curveFitting=1;rounded=1;movable=0;resizable=0;rotatable=0;deletable=0;editable=0;locked=1;labelBackgroundColor=none;fontColor=#393C56;" parent="QTP2n4AatyaKwR-8FhE4-144" vertex="1">
          <mxGeometry width="60" height="40" as="geometry">
            <mxRectangle width="60" height="40" as="alternateBounds" />
          </mxGeometry>
        </mxCell>
        <mxCell id="QTP2n4AatyaKwR-8FhE4-146" value="" style="shape=tableRow;horizontal=0;startSize=0;swimlaneHead=0;swimlaneBody=0;strokeColor=#E07A5F;top=0;left=0;bottom=0;right=0;collapsible=0;dropTarget=0;fillColor=none;points=[[0,0.5],[1,0.5]];portConstraint=eastwest;sketch=1;hachureGap=4;jiggle=2;curveFitting=1;rounded=1;movable=0;resizable=0;rotatable=0;deletable=0;editable=0;locked=1;connectable=0;labelBackgroundColor=none;fontColor=#393C56;" parent="QTP2n4AatyaKwR-8FhE4-141" vertex="1">
          <mxGeometry y="80" width="60" height="40" as="geometry" />
        </mxCell>
        <mxCell id="QTP2n4AatyaKwR-8FhE4-147" value="..." style="shape=partialRectangle;html=1;whiteSpace=wrap;connectable=0;strokeColor=#E07A5F;overflow=hidden;fillColor=none;top=0;left=0;bottom=0;right=0;pointerEvents=1;sketch=1;hachureGap=4;jiggle=2;curveFitting=1;rounded=1;movable=0;resizable=0;rotatable=0;deletable=0;editable=0;locked=1;labelBackgroundColor=none;fontColor=#393C56;" parent="QTP2n4AatyaKwR-8FhE4-146" vertex="1">
          <mxGeometry width="60" height="40" as="geometry">
            <mxRectangle width="60" height="40" as="alternateBounds" />
          </mxGeometry>
        </mxCell>
        <mxCell id="QTP2n4AatyaKwR-8FhE4-148" value="" style="shape=tableRow;horizontal=0;startSize=0;swimlaneHead=0;swimlaneBody=0;strokeColor=#E07A5F;top=0;left=0;bottom=0;right=0;collapsible=0;dropTarget=0;fillColor=none;points=[[0,0.5],[1,0.5]];portConstraint=eastwest;sketch=1;hachureGap=4;jiggle=2;curveFitting=1;rounded=1;movable=0;resizable=0;rotatable=0;deletable=0;editable=0;locked=1;connectable=0;labelBackgroundColor=none;fontColor=#393C56;" parent="QTP2n4AatyaKwR-8FhE4-141" vertex="1">
          <mxGeometry y="120" width="60" height="40" as="geometry" />
        </mxCell>
        <mxCell id="QTP2n4AatyaKwR-8FhE4-149" value="..." style="shape=partialRectangle;html=1;whiteSpace=wrap;connectable=0;strokeColor=#E07A5F;overflow=hidden;fillColor=none;top=0;left=0;bottom=0;right=0;pointerEvents=1;sketch=1;hachureGap=4;jiggle=2;curveFitting=1;rounded=1;movable=0;resizable=0;rotatable=0;deletable=0;editable=0;locked=1;labelBackgroundColor=none;fontColor=#393C56;" parent="QTP2n4AatyaKwR-8FhE4-148" vertex="1">
          <mxGeometry width="60" height="40" as="geometry">
            <mxRectangle width="60" height="40" as="alternateBounds" />
          </mxGeometry>
        </mxCell>
        <mxCell id="QTP2n4AatyaKwR-8FhE4-78" value="" style="shape=table;startSize=0;container=1;collapsible=0;childLayout=tableLayout;sketch=1;hachureGap=4;jiggle=2;curveFitting=1;rounded=1;movable=1;resizable=1;rotatable=1;deletable=1;editable=1;locked=0;connectable=1;labelBackgroundColor=none;fillColor=#F2CC8F;strokeColor=#E07A5F;fontColor=#393C56;" parent="nZQhXkqVhuCxKCc_rjwz-1" vertex="1">
          <mxGeometry x="380" y="210" width="60" height="160" as="geometry" />
        </mxCell>
        <mxCell id="QTP2n4AatyaKwR-8FhE4-79" value="" style="shape=tableRow;horizontal=0;startSize=0;swimlaneHead=0;swimlaneBody=0;strokeColor=#E07A5F;top=0;left=0;bottom=0;right=0;collapsible=0;dropTarget=0;fillColor=#F2CC8F;points=[[0,0.5],[1,0.5]];portConstraint=eastwest;sketch=1;hachureGap=4;jiggle=2;curveFitting=1;rounded=1;movable=1;resizable=1;rotatable=1;deletable=1;editable=1;locked=0;connectable=1;labelBackgroundColor=none;fontColor=#393C56;" parent="QTP2n4AatyaKwR-8FhE4-78" vertex="1">
          <mxGeometry width="60" height="40" as="geometry" />
        </mxCell>
        <mxCell id="QTP2n4AatyaKwR-8FhE4-80" value="苏州" style="shape=partialRectangle;html=1;whiteSpace=wrap;connectable=1;strokeColor=#E07A5F;overflow=hidden;fillColor=#F2CC8F;top=0;left=0;bottom=0;right=0;pointerEvents=1;sketch=1;hachureGap=4;jiggle=2;curveFitting=1;rounded=1;movable=1;resizable=1;rotatable=1;deletable=1;editable=1;locked=0;labelBackgroundColor=none;fontColor=#393C56;" parent="QTP2n4AatyaKwR-8FhE4-79" vertex="1">
          <mxGeometry width="60" height="40" as="geometry">
            <mxRectangle width="60" height="40" as="alternateBounds" />
          </mxGeometry>
        </mxCell>
        <mxCell id="QTP2n4AatyaKwR-8FhE4-81" value="" style="shape=tableRow;horizontal=0;startSize=0;swimlaneHead=0;swimlaneBody=0;strokeColor=#E07A5F;top=0;left=0;bottom=0;right=0;collapsible=0;dropTarget=0;fillColor=#F2CC8F;points=[[0,0.5],[1,0.5]];portConstraint=eastwest;sketch=1;hachureGap=4;jiggle=2;curveFitting=1;rounded=1;movable=1;resizable=1;rotatable=1;deletable=1;editable=1;locked=0;connectable=1;labelBackgroundColor=none;fontColor=#393C56;" parent="QTP2n4AatyaKwR-8FhE4-78" vertex="1">
          <mxGeometry y="40" width="60" height="40" as="geometry" />
        </mxCell>
        <mxCell id="QTP2n4AatyaKwR-8FhE4-82" value="王五" style="shape=partialRectangle;html=1;whiteSpace=wrap;connectable=1;strokeColor=#E07A5F;overflow=hidden;fillColor=#F2CC8F;top=0;left=0;bottom=0;right=0;pointerEvents=1;sketch=1;hachureGap=4;jiggle=2;curveFitting=1;rounded=1;movable=1;resizable=1;rotatable=1;deletable=1;editable=1;locked=0;labelBackgroundColor=none;fontColor=#393C56;" parent="QTP2n4AatyaKwR-8FhE4-81" vertex="1">
          <mxGeometry width="60" height="40" as="geometry">
            <mxRectangle width="60" height="40" as="alternateBounds" />
          </mxGeometry>
        </mxCell>
        <mxCell id="QTP2n4AatyaKwR-8FhE4-83" value="" style="shape=tableRow;horizontal=0;startSize=0;swimlaneHead=0;swimlaneBody=0;strokeColor=#E07A5F;top=0;left=0;bottom=0;right=0;collapsible=0;dropTarget=0;fillColor=#F2CC8F;points=[[0,0.5],[1,0.5]];portConstraint=eastwest;sketch=1;hachureGap=4;jiggle=2;curveFitting=1;rounded=1;movable=1;resizable=1;rotatable=1;deletable=1;editable=1;locked=0;connectable=1;labelBackgroundColor=none;fontColor=#393C56;" parent="QTP2n4AatyaKwR-8FhE4-78" vertex="1">
          <mxGeometry y="80" width="60" height="40" as="geometry" />
        </mxCell>
        <mxCell id="QTP2n4AatyaKwR-8FhE4-84" value="22" style="shape=partialRectangle;html=1;whiteSpace=wrap;connectable=1;strokeColor=#E07A5F;overflow=hidden;fillColor=#F2CC8F;top=0;left=0;bottom=0;right=0;pointerEvents=1;sketch=1;hachureGap=4;jiggle=2;curveFitting=1;rounded=1;movable=1;resizable=1;rotatable=1;deletable=1;editable=1;locked=0;labelBackgroundColor=none;fontColor=#393C56;" parent="QTP2n4AatyaKwR-8FhE4-83" vertex="1">
          <mxGeometry width="60" height="40" as="geometry">
            <mxRectangle width="60" height="40" as="alternateBounds" />
          </mxGeometry>
        </mxCell>
        <mxCell id="QTP2n4AatyaKwR-8FhE4-85" value="" style="shape=tableRow;horizontal=0;startSize=0;swimlaneHead=0;swimlaneBody=0;strokeColor=#E07A5F;top=0;left=0;bottom=0;right=0;collapsible=0;dropTarget=0;fillColor=#F2CC8F;points=[[0,0.5],[1,0.5]];portConstraint=eastwest;sketch=1;hachureGap=4;jiggle=2;curveFitting=1;rounded=1;movable=1;resizable=1;rotatable=1;deletable=1;editable=1;locked=0;connectable=1;labelBackgroundColor=none;fontColor=#393C56;" parent="QTP2n4AatyaKwR-8FhE4-78" vertex="1">
          <mxGeometry y="120" width="60" height="40" as="geometry" />
        </mxCell>
        <mxCell id="QTP2n4AatyaKwR-8FhE4-86" value="..." style="shape=partialRectangle;html=1;whiteSpace=wrap;connectable=1;strokeColor=#E07A5F;overflow=hidden;fillColor=#F2CC8F;top=0;left=0;bottom=0;right=0;pointerEvents=1;sketch=1;hachureGap=4;jiggle=2;curveFitting=1;rounded=1;movable=1;resizable=1;rotatable=1;deletable=1;editable=1;locked=0;labelBackgroundColor=none;fontColor=#393C56;" parent="QTP2n4AatyaKwR-8FhE4-85" vertex="1">
          <mxGeometry width="60" height="40" as="geometry">
            <mxRectangle width="60" height="40" as="alternateBounds" />
          </mxGeometry>
        </mxCell>
        <mxCell id="nZQhXkqVhuCxKCc_rjwz-10" value="" style="shape=table;startSize=0;container=1;collapsible=0;childLayout=tableLayout;sketch=1;hachureGap=4;jiggle=2;curveFitting=1;fontSize=16;rounded=1;labelBackgroundColor=none;fillColor=#F2CC8F;strokeColor=#E07A5F;fontColor=#393C56;" vertex="1" parent="1">
          <mxGeometry x="469" y="1145" width="180" height="40" as="geometry" />
        </mxCell>
        <mxCell id="nZQhXkqVhuCxKCc_rjwz-11" value="" style="shape=tableRow;horizontal=0;startSize=0;swimlaneHead=0;swimlaneBody=0;strokeColor=#E07A5F;top=0;left=0;bottom=0;right=0;collapsible=0;dropTarget=0;fillColor=none;points=[[0,0.5],[1,0.5]];portConstraint=eastwest;sketch=1;hachureGap=4;jiggle=2;curveFitting=1;fontSize=16;rounded=1;labelBackgroundColor=none;fontColor=#393C56;" vertex="1" parent="nZQhXkqVhuCxKCc_rjwz-10">
          <mxGeometry width="180" height="40" as="geometry" />
        </mxCell>
        <mxCell id="nZQhXkqVhuCxKCc_rjwz-12" value="1&lt;span style=&quot;white-space: pre; font-size: 16px;&quot;&gt;&#x9;&lt;/span&gt;" style="shape=partialRectangle;html=1;whiteSpace=wrap;connectable=0;strokeColor=#E07A5F;overflow=hidden;fillColor=none;top=0;left=0;bottom=0;right=0;pointerEvents=1;sketch=1;hachureGap=4;jiggle=2;curveFitting=1;fontSize=16;rounded=1;labelBackgroundColor=none;fontColor=#393C56;" vertex="1" parent="nZQhXkqVhuCxKCc_rjwz-11">
          <mxGeometry width="60" height="40" as="geometry">
            <mxRectangle width="60" height="40" as="alternateBounds" />
          </mxGeometry>
        </mxCell>
        <mxCell id="nZQhXkqVhuCxKCc_rjwz-13" value="2" style="shape=partialRectangle;html=1;whiteSpace=wrap;connectable=0;strokeColor=#E07A5F;overflow=hidden;fillColor=none;top=0;left=0;bottom=0;right=0;pointerEvents=1;sketch=1;hachureGap=4;jiggle=2;curveFitting=1;fontSize=16;rounded=1;labelBackgroundColor=none;fontColor=#393C56;" vertex="1" parent="nZQhXkqVhuCxKCc_rjwz-11">
          <mxGeometry x="60" width="60" height="40" as="geometry">
            <mxRectangle width="60" height="40" as="alternateBounds" />
          </mxGeometry>
        </mxCell>
        <mxCell id="nZQhXkqVhuCxKCc_rjwz-14" value="3" style="shape=partialRectangle;html=1;whiteSpace=wrap;connectable=0;strokeColor=#E07A5F;overflow=hidden;fillColor=none;top=0;left=0;bottom=0;right=0;pointerEvents=1;sketch=1;hachureGap=4;jiggle=2;curveFitting=1;fontSize=16;rounded=1;labelBackgroundColor=none;fontColor=#393C56;" vertex="1" parent="nZQhXkqVhuCxKCc_rjwz-11">
          <mxGeometry x="120" width="60" height="40" as="geometry">
            <mxRectangle width="60" height="40" as="alternateBounds" />
          </mxGeometry>
        </mxCell>
        <mxCell id="nZQhXkqVhuCxKCc_rjwz-15" value="0x0080" style="text;html=1;align=center;verticalAlign=middle;resizable=0;points=[];autosize=1;strokeColor=none;fillColor=none;fontSize=16;rounded=1;labelBackgroundColor=none;fontColor=#393C56;sketch=1;curveFitting=1;jiggle=2;" vertex="1" parent="1">
          <mxGeometry x="459" y="1090" width="80" height="30" as="geometry" />
        </mxCell>
        <mxCell id="nZQhXkqVhuCxKCc_rjwz-19" value="dataFromDb" style="text;html=1;align=center;verticalAlign=middle;resizable=0;points=[];autosize=1;strokeColor=none;fillColor=none;fontSize=16;rounded=1;labelBackgroundColor=none;fontColor=#393C56;sketch=1;curveFitting=1;jiggle=2;arcSize=33;labelBorderColor=none;" vertex="1" parent="1">
          <mxGeometry x="464" y="1050" width="110" height="30" as="geometry" />
        </mxCell>
        <mxCell id="nZQhXkqVhuCxKCc_rjwz-35" style="edgeStyle=orthogonalEdgeStyle;rounded=1;sketch=1;hachureGap=4;jiggle=2;curveFitting=1;orthogonalLoop=1;jettySize=auto;html=1;entryX=1;entryY=0.5;entryDx=0;entryDy=0;strokeColor=#E07A5F;fontFamily=Helvetica;fontSize=16;fontColor=default;labelBackgroundColor=none;fillColor=#F2CC8F;" edge="1" parent="1" source="nZQhXkqVhuCxKCc_rjwz-11">
          <mxGeometry relative="1" as="geometry">
            <mxPoint x="309" y="1175" as="targetPoint" />
          </mxGeometry>
        </mxCell>
        <mxCell id="nZQhXkqVhuCxKCc_rjwz-52" style="edgeStyle=orthogonalEdgeStyle;rounded=1;sketch=1;hachureGap=4;jiggle=2;curveFitting=1;orthogonalLoop=1;jettySize=auto;html=1;entryX=0.5;entryY=0;entryDx=0;entryDy=0;strokeColor=#E07A5F;fontColor=#393C56;fillColor=#F2CC8F;" edge="1" parent="1" source="nZQhXkqVhuCxKCc_rjwz-38" target="nZQhXkqVhuCxKCc_rjwz-48">
          <mxGeometry relative="1" as="geometry" />
        </mxCell>
        <mxCell id="nZQhXkqVhuCxKCc_rjwz-38" value="1" style="rounded=1;whiteSpace=wrap;html=1;sketch=1;hachureGap=4;jiggle=2;curveFitting=1;strokeColor=#E07A5F;fontColor=#393C56;fillColor=#F2CC8F;fontSize=16;" vertex="1" parent="1">
          <mxGeometry x="189" y="1145" width="120" height="75" as="geometry" />
        </mxCell>
        <mxCell id="nZQhXkqVhuCxKCc_rjwz-39" value="0x0030" style="text;html=1;align=center;verticalAlign=middle;resizable=0;points=[];autosize=1;strokeColor=none;fillColor=none;fontColor=#393C56;fontSize=16;rounded=1;sketch=1;curveFitting=1;jiggle=2;" vertex="1" parent="1">
          <mxGeometry x="179" y="1095" width="80" height="30" as="geometry" />
        </mxCell>
        <mxCell id="nZQhXkqVhuCxKCc_rjwz-40" value="for-range中开辟的 v 变量" style="text;html=1;align=center;verticalAlign=middle;resizable=0;points=[];autosize=1;strokeColor=none;fillColor=none;fontColor=#393C56;fontSize=16;rounded=1;sketch=1;curveFitting=1;jiggle=2;" vertex="1" parent="1">
          <mxGeometry x="109" y="1060" width="200" height="30" as="geometry" />
        </mxCell>
        <mxCell id="nZQhXkqVhuCxKCc_rjwz-41" value="" style="shape=table;startSize=0;container=1;collapsible=0;childLayout=tableLayout;sketch=1;hachureGap=4;jiggle=2;curveFitting=1;fontSize=16;rounded=1;labelBackgroundColor=none;fillColor=#F2CC8F;strokeColor=#E07A5F;fontColor=#393C56;" vertex="1" parent="1">
          <mxGeometry x="320" y="1490" width="191" height="55" as="geometry" />
        </mxCell>
        <mxCell id="nZQhXkqVhuCxKCc_rjwz-42" value="" style="shape=tableRow;horizontal=0;startSize=0;swimlaneHead=0;swimlaneBody=0;strokeColor=#E07A5F;top=0;left=0;bottom=0;right=0;collapsible=0;dropTarget=0;fillColor=none;points=[[0,0.5],[1,0.5]];portConstraint=eastwest;sketch=1;hachureGap=4;jiggle=2;curveFitting=1;fontSize=16;rounded=1;labelBackgroundColor=none;fontColor=#393C56;" vertex="1" parent="nZQhXkqVhuCxKCc_rjwz-41">
          <mxGeometry width="191" height="55" as="geometry" />
        </mxCell>
        <mxCell id="nZQhXkqVhuCxKCc_rjwz-43" value="0x0040" style="shape=partialRectangle;html=1;whiteSpace=wrap;connectable=0;strokeColor=#E07A5F;overflow=hidden;fillColor=none;top=0;left=0;bottom=0;right=0;pointerEvents=1;sketch=1;hachureGap=4;jiggle=2;curveFitting=1;fontSize=16;rounded=1;labelBackgroundColor=none;fontColor=#393C56;" vertex="1" parent="nZQhXkqVhuCxKCc_rjwz-42">
          <mxGeometry width="64" height="55" as="geometry">
            <mxRectangle width="64" height="55" as="alternateBounds" />
          </mxGeometry>
        </mxCell>
        <mxCell id="nZQhXkqVhuCxKCc_rjwz-44" value="0x0050" style="shape=partialRectangle;html=1;whiteSpace=wrap;connectable=0;strokeColor=#E07A5F;overflow=hidden;fillColor=none;top=0;left=0;bottom=0;right=0;pointerEvents=1;sketch=1;hachureGap=4;jiggle=2;curveFitting=1;fontSize=16;rounded=1;labelBackgroundColor=none;fontColor=#393C56;" vertex="1" parent="nZQhXkqVhuCxKCc_rjwz-42">
          <mxGeometry x="64" width="63" height="55" as="geometry">
            <mxRectangle width="63" height="55" as="alternateBounds" />
          </mxGeometry>
        </mxCell>
        <mxCell id="nZQhXkqVhuCxKCc_rjwz-45" value="0x0060" style="shape=partialRectangle;html=1;whiteSpace=wrap;connectable=0;strokeColor=#E07A5F;overflow=hidden;fillColor=none;top=0;left=0;bottom=0;right=0;pointerEvents=1;sketch=1;hachureGap=4;jiggle=2;curveFitting=1;fontSize=16;rounded=1;labelBackgroundColor=none;fontColor=#393C56;" vertex="1" parent="nZQhXkqVhuCxKCc_rjwz-42">
          <mxGeometry x="127" width="64" height="55" as="geometry">
            <mxRectangle width="64" height="55" as="alternateBounds" />
          </mxGeometry>
        </mxCell>
        <mxCell id="nZQhXkqVhuCxKCc_rjwz-46" value="finalData :&amp;nbsp;[]*int" style="text;html=1;align=center;verticalAlign=middle;resizable=0;points=[];autosize=1;strokeColor=none;fillColor=none;fontColor=#393C56;fontSize=16;rounded=1;sketch=1;curveFitting=1;jiggle=2;" vertex="1" parent="1">
          <mxGeometry x="290" y="1550" width="130" height="30" as="geometry" />
        </mxCell>
        <mxCell id="nZQhXkqVhuCxKCc_rjwz-48" value="1" style="rounded=1;whiteSpace=wrap;html=1;sketch=1;hachureGap=4;jiggle=2;curveFitting=1;strokeColor=#E07A5F;fontColor=#393C56;fillColor=#F2CC8F;fontSize=16;" vertex="1" parent="1">
          <mxGeometry x="189" y="1340" width="120" height="60" as="geometry" />
        </mxCell>
        <mxCell id="nZQhXkqVhuCxKCc_rjwz-49" value="0x0040" style="text;html=1;align=center;verticalAlign=middle;resizable=0;points=[];autosize=1;strokeColor=none;fillColor=none;fontColor=#393C56;fontSize=16;rounded=1;sketch=1;curveFitting=1;jiggle=2;" vertex="1" parent="1">
          <mxGeometry x="124" y="1305" width="80" height="30" as="geometry" />
        </mxCell>
        <mxCell id="nZQhXkqVhuCxKCc_rjwz-50" value="temp变量" style="text;html=1;align=center;verticalAlign=middle;resizable=0;points=[];autosize=1;strokeColor=none;fillColor=none;fontColor=#393C56;fontSize=16;rounded=1;sketch=1;curveFitting=1;jiggle=2;" vertex="1" parent="1">
          <mxGeometry x="109" y="1270" width="90" height="30" as="geometry" />
        </mxCell>
        <mxCell id="nZQhXkqVhuCxKCc_rjwz-53" style="edgeStyle=orthogonalEdgeStyle;rounded=1;sketch=1;hachureGap=4;jiggle=2;curveFitting=1;orthogonalLoop=1;jettySize=auto;html=1;entryX=-0.001;entryY=0.701;entryDx=0;entryDy=0;entryPerimeter=0;strokeColor=#E07A5F;fontColor=#393C56;fillColor=#F2CC8F;" edge="1" parent="1" source="nZQhXkqVhuCxKCc_rjwz-48" target="nZQhXkqVhuCxKCc_rjwz-42">
          <mxGeometry relative="1" as="geometry" />
        </mxCell>
        <mxCell id="nZQhXkqVhuCxKCc_rjwz-57" style="edgeStyle=orthogonalEdgeStyle;rounded=1;sketch=1;hachureGap=4;jiggle=2;curveFitting=1;orthogonalLoop=1;jettySize=auto;html=1;strokeColor=#E07A5F;fontColor=#393C56;fillColor=#F2CC8F;" edge="1" parent="1" source="nZQhXkqVhuCxKCc_rjwz-54">
          <mxGeometry relative="1" as="geometry">
            <mxPoint x="420" y="1480" as="targetPoint" />
            <Array as="points">
              <mxPoint x="420" y="1430" />
            </Array>
          </mxGeometry>
        </mxCell>
        <mxCell id="nZQhXkqVhuCxKCc_rjwz-54" value="2" style="rounded=1;whiteSpace=wrap;html=1;sketch=1;hachureGap=4;jiggle=2;curveFitting=1;fontSize=16;opacity=50;fillStyle=auto;dashed=1;" vertex="1" parent="1">
          <mxGeometry x="330" y="1350" width="90" height="45" as="geometry" />
        </mxCell>
        <mxCell id="nZQhXkqVhuCxKCc_rjwz-59" style="edgeStyle=orthogonalEdgeStyle;rounded=1;sketch=1;hachureGap=4;jiggle=2;curveFitting=1;orthogonalLoop=1;jettySize=auto;html=1;exitX=0.5;exitY=1;exitDx=0;exitDy=0;strokeColor=#E07A5F;fontColor=#393C56;fillColor=#F2CC8F;" edge="1" parent="1" source="nZQhXkqVhuCxKCc_rjwz-56">
          <mxGeometry relative="1" as="geometry">
            <mxPoint x="470" y="1480" as="targetPoint" />
          </mxGeometry>
        </mxCell>
        <mxCell id="nZQhXkqVhuCxKCc_rjwz-56" value="3" style="rounded=1;whiteSpace=wrap;html=1;sketch=1;hachureGap=4;jiggle=2;curveFitting=1;fontSize=16;opacity=50;fillStyle=auto;dashed=1;" vertex="1" parent="1">
          <mxGeometry x="440" y="1347.5" width="90" height="45" as="geometry" />
        </mxCell>
      </root>
    </mxGraphModel>
  </diagram>
</mxfile>
